<svg xmlns="http://www.w3.org/2000/svg" xmlns:xlink="http://www.w3.org/1999/xlink" version="1.1"><metadata>Created by FontForge 20161013 at Sat May 1 13:23:59 2010 By ,,, (c) Marcin Les&apos;ko&apos;w 2009 (www.martinleskow.pl). All Rights Reserved</metadata><defs><font id="WildScript" horiz-adv-x="923"><font-face x-height="853" ascent="1638" bbox="-555 -795 2424 2368" cap-height="1620" descent="-410" font-family="Wild Script" font-stretch="normal" font-weight="300" panose-1="2 0 0 0 0 0 0 0 0 0" underline-position="-337" underline-thickness="80" unicode-range="U+0020-F005" units-per-em="2048"/><glyph d="M207 0v1037h829v-1037h-829zM233 26h778v985h-778v-985z" glyph-name=".notdef" horiz-adv-x="1243"/><glyph glyph-name=".null" horiz-adv-x="0"/><glyph glyph-name="nonmarkingreturn" horiz-adv-x="461"/><glyph glyph-name="space" horiz-adv-x="710"/><glyph glyph-name="space" horiz-adv-x="710"/><glyph d="M275 1643h20q93 0 129 -94q13 -30 13 -94v-7q0 -171 -162 -686q-29 -108 -29 -140q29 -3 29 -9v-26q-3 -10 -19 -10h-23q-9 -55 -9 -101q10 -90 61 -90l3 -3q10 0 10 -7v-26l-6 -6h-26q-98 0 -98 175q0 66 7 94q-94 154 -94 550v4q0 358 91 450q46 26 103 26zM159 1005 q0 -139 29 -279h3l114 567l9 113v26q-5 91 -45 91q-78 0 -107 -457zM285 172h29q59 0 59 -68v-3q0 -78 -94 -117h-65q-75 0 -88 65v32q0 50 111 78q0 9 48 13zM259 131q-26 -4 -43 -17t-14 -26q1 -13 22 -19t47 -2q26 5 43 17.5t15 26.5q-3 13 -23 19t-47 1z" glyph-name="exclam" horiz-adv-x="509" unicode="!"/><glyph d="M157 2245h4q80 -100 80 -284q0 -117 -149 -301h-4l-7 12q30 119 49 323q31 84 31 165l-12 73zM340 2245h4q80 -100 80 -284q0 -117 -149 -301h-4l-7 12q30 119 49 323q31 84 31 165l-11 73z" glyph-name="quotedbl" horiz-adv-x="506" unicode="&quot;"/><glyph d="M262 649q34 82 81 167q19 45 55 108q-112 11 -247 22l-5 3v29q0 14 231 23q0 5 69 6q43 69 99 155q233 405 137 669l-22 62l4 9l33 13h1q13 0 55 -112q117 -322 -126 -776q-3 -7 -7 -14l162 -6q5 0 9 -1q43 69 100 156q233 405 137 669l-22 62l4 9l32 13h1q14 0 56 -112 q38 -105 38 -223q0 -247 -164 -553q-11 -23 -21 -45q35 -4 55 -4l197 7l5 -4v-29q0 -18 -269 -52h-29q-72 -140 -144 -245l-10 -20q85 -12 121 -12l197 6l6 -3v-29q0 -18 -270 -52l-101 -3q-86 -176 -102 -250q-59 -271 7 -451l-3 -4l-32 -13h-1q-8 0 -30 52 q-109 299 18 666q-98 1 -122 6q-35 5 -74 9q-93 -188 -109 -265q-59 -271 7 -451l-3 -4l-32 -13h-1q-8 0 -30 52q-113 311 29 696q-98 9 -209 18l-6 3v30q0 13 231 22q0 3 14 4zM568 905q-72 -141 -145 -248q21 0 50 1l137 -5q34 81 78 163q16 35 41 81q-127 1 -156 7 q-3 0 -5 1z" glyph-name="numbersign" horiz-adv-x="1314" unicode="#"/><glyph d="M654 887q-29 -161 -66 -292q-61 -353 -53 -468q3 -64 10 -122q13 -1 26 -1q229 0 427 192q96 107 122 197q17 41 26 130q0 147 -148 298q-78 65 -290 65q-28 0 -54 1zM611 1717q-232 -16 -316 -248q-19 -68 -19 -107q0 -122 106 -243q56 -63 138 -94q20 87 49 193 q60 287 42 499zM689 1781q283 -25 517 -322l3 -3v-29l-5 -7h-24q-226 268 -477 295q47 -264 -18 -626q-7 -47 -13 -92q13 -1 26 -1h142q285 0 385 -327q15 -56 15 -114v-35q0 -233 -192 -422q-198 -177 -431 -177h-60q34 -186 108 -309l-1 -6l-28 -26h-1q-9 0 -43 49 q-82 135 -124 301q-256 44 -486 311q-100 128 -100 165q0 6 3 10q19 26 170 -159q195 -194 394 -239q-58 318 19 736q8 66 29 165q-145 53 -223 190q-69 100 -69 246q0 237 185 370q84 56 213 58q-23 143 -86 247l-38 64l2 12l27 25q1 1 2 1q16 0 83 -111q64 -106 96 -240z" glyph-name="dollar" horiz-adv-x="1378" unicode="$"/><glyph d="M1209 1806h34q15 0 15 -124q0 -342 -385 -686q-171 -172 -319 -279q-223 -203 -274 -287q-149 -235 -149 -426l-4 -4h-34q-9 0 -11 58q0 434 453 837q86 90 308 256q358 301 358 582v65zM459 1771q134 0 221 -178q27 -77 27 -155q0 -293 -248 -368l-72 -8 q-176 0 -248 159q-23 56 -23 116v55q0 180 149 329h41q60 50 153 50zM318 1516l-8 -8h-30q-15 0 -15 58v51h-4q-57 -120 -57 -210v-11q0 -149 140 -198l23 -4q84 0 183 151q34 85 34 128q0 129 -114 201l-38 12q-99 0 -114 -124v-46zM996 721q146 0 228 -190q23 -70 23 -143 q0 -266 -210 -357q-43 -20 -110 -20q-197 0 -259 195q-11 37 -11 69v70q0 176 148 326h42q62 50 149 50zM859 512v-47l-8 -7h-30q-16 0 -16 57v51h-4q-56 -120 -56 -210v-11q0 -149 140 -198l23 -4q84 0 182 152q35 84 35 135q0 113 -111 194l-41 12q-114 -18 -114 -124z" glyph-name="percent" horiz-adv-x="1354" unicode="%"/><glyph d="M567 1617h6q242 0 341 -263l9 -74v-39q0 -196 -333 -386v-6q110 -55 168 -55l3 -3v-30l-6 -6h-39q-60 0 -188 61q-149 -98 -240 -187q-97 -107 -97 -240q0 -191 201 -276q84 -22 165 -22q184 0 328 181q97 149 97 256q0 58 -46 91q-30 -10 -68 -10h-32q-16 8 -16 26v13 q7 36 55 36h45l46 -4q113 30 194 30h3q52 0 52 -30v-19l-6 -7h-20q-12 0 -29 13q-88 -13 -143 -29q26 -42 26 -100v-36q0 -224 -207 -405q-125 -97 -314 -97q-355 0 -431 295q-10 49 -10 94v52q0 252 330 456v4q-217 183 -217 350v58q0 151 205 269q79 39 168 39zM262 1267 q0 -149 208 -334q210 113 298 214q52 66 52 117v6q0 126 -149 230q-63 29 -107 29q-154 0 -272 -158q-30 -59 -30 -104z" glyph-name="ampersand" horiz-adv-x="1230" unicode="&amp;"/><glyph d="M157 2245h4q80 -100 80 -284q0 -117 -149 -301h-4l-7 12q30 119 49 323q31 84 31 165l-12 73z" glyph-name="quotesingle" horiz-adv-x="317" unicode="'"/><glyph d="M408 1940h33v-54q-50 -93 -111 -388q-45 -326 -45 -550l3 -60v-141l-3 -105q0 -498 149 -959v-32l-6 -10h-26q-91 173 -149 433q-91 402 -91 733q0 354 123 841q69 210 123 292z" glyph-name="parenleft" horiz-adv-x="531" unicode="("/><glyph d="M326 1648q123 -487 123 -841q0 -331 -91 -733q-58 -260 -149 -433h-26l-7 10v32q150 461 150 959l-4 105v141l4 60q0 224 -46 550q-61 295 -110 388v54h32q55 -82 124 -292z" glyph-name="parenright" horiz-adv-x="554" unicode=")"/><glyph d="M314 1894q5 41 11 109l-3 39v6l6 7h29q22 -34 45 -163q28 29 72 77l20 33l4 5l9 2l24 -18q-3 -41 -67 -162q53 -14 75 -14l113 7l3 -4v-29q0 -18 -155 -52h-13q28 -34 44 -47l94 -63v-5l-17 -22q-11 -15 -155 52l-50 34q-30 -156 -59 -211h-29l-6 6v65q0 53 -2 91 q-90 -78 -137 -100l-23 17l-1 9l39 52q65 87 89 129q-94 21 -228 39l-3 3v29q0 14 133 23q0 6 56 6q-50 55 -114 118v5l17 23q8 11 120 -62q4 5 55 -34q1 1 4 0z" glyph-name="asterisk" horiz-adv-x="712" unicode="*"/><glyph d="M407 1409h29q26 -40 52 -211q98 -29 130 -29l113 7l3 -4v-29q0 -18 -155 -52l-75 -3h-13q-35 -196 -68 -259h-29l-6 6v65q0 188 -20 195q-99 22 -243 42l-3 3v29q0 14 133 23q0 6 65 6q0 4 64 7q10 38 20 152l-3 39v6z" glyph-name="plus" horiz-adv-x="875" unicode="+"/><glyph d="M173 145h4q97 -100 97 -283q0 -118 -179 -302h-5l-9 13q36 119 60 323q36 83 36 164l-13 73z" glyph-name="comma" horiz-adv-x="329" unicode=","/><glyph d="M439 1259q98 -29 130 -29l113 6l3 -3v-29q0 -18 -155 -52l-75 -3h-13q-103 0 -123 6q-99 23 -243 43l-3 3v29q0 14 133 23q0 6 65 6q0 4 64 7z" glyph-name="hyphen" horiz-adv-x="746" unicode="-"/><glyph d="M439 1259q98 -29 130 -29l113 6l3 -3v-29q0 -18 -155 -52l-75 -3h-13q-103 0 -123 6q-99 23 -243 43l-3 3v29q0 14 133 23q0 6 65 6q0 4 64 7z" glyph-name="hyphen" horiz-adv-x="746" unicode="­"/><glyph d="M236 172h29q58 0 58 -68v-3q0 -78 -94 -117h-65q-75 0 -87 65v32q0 50 110 78q0 9 49 13zM210 131q-26 -4 -43 -17t-15 -26t22.5 -19t46.5 -2q27 5 44 17.5t15 26.5q-3 13 -23 19t-47 1z" glyph-name="period" horiz-adv-x="369" unicode="."/><glyph d="M592 1902l32 13h1q14 0 56 -112q38 -105 38 -223q0 -247 -164 -553q-102 -220 -206 -372q-139 -267 -159 -363q-59 -271 7 -451l-3 -4l-32 -13h-1q-8 0 -30 52q-50 138 -50 291q0 297 189 649q51 114 203 346q233 405 137 669l-22 62z" glyph-name="slash" horiz-adv-x="821" unicode="/"/><glyph d="M528 1672h52q384 0 538 -775q42 -138 42 -275q0 -363 -324 -554q-144 -68 -292 -68q-366 0 -492 389q-52 153 -52 382v3q0 480 262 739q64 55 81 55h23l7 -6v-26q-175 -146 -224 -308q-74 -194 -74 -395q0 -349 155 -567q126 -149 292 -149q189 0 388 171q79 92 101 156 q45 99 45 217q0 143 -120 577q-98 274 -249 346q-92 39 -156 39q-66 0 -233 -48h-16l-7 6v26q0 19 175 58q30 7 78 7z" glyph-name="zero" horiz-adv-x="1233" unicode="0"/><glyph d="M758 1730h7q48 -7 48 -39v-29l-68 -706q-26 -261 -26 -502q0 -319 68 -399q36 -18 36 -23v-26l-7 -6h-22q-152 0 -152 761l6 379l3 4v6h-3q-82 -116 -220 -210q-229 -132 -405 -149h-17l-6 6v26q0 8 117 39q374 145 505 428q49 90 49 213q26 221 52 221q12 6 35 6z" glyph-name="one" horiz-adv-x="939" unicode="1"/><glyph d="M690 1743h10q291 0 424 -262q42 -92 42 -191v-39q0 -305 -324 -681q-57 -80 -311 -376v-3q251 -136 396 -136q175 0 340 194h29l6 -6v-19q-20 -63 -158 -162q-106 -62 -204 -62h-62q-149 0 -405 130h-3q-112 -117 -201 -117l-52 -3h-68q-114 0 -146 81l-3 35 q0 136 194 179h65q55 0 162 -52q309 393 476 596q169 250 169 421v23q0 205 -207 330q-103 46 -185 46q-261 0 -369 -234q-30 -80 -30 -139q0 -133 101 -217v-26l-7 -6h-29q-116 75 -116 268q0 288 278 402q89 26 188 26zM97 130q20 -23 75 -23q116 0 171 65l13 13v3 q-76 32 -110 32h-9q-81 0 -140 -84v-6z" glyph-name="two" horiz-adv-x="1364" unicode="2"/><glyph d="M608 1695q267 -23 370 -306q22 -81 17 -144l-5 -59q-13 -141 -141 -264q91 -27 162 -118q91 -128 91 -284q0 -24 -2 -49l-5 -58q-15 -167 -130 -288q-119 -130 -326 -130q-32 0 -66 3l-48 3q-274 24 -445 225q-77 109 -77 197q0 9 1 17l2 26l8 6l25 -2l22 -90 q51 -149 229 -241q123 -57 231 -66l10 -1q227 -20 355 112q97 112 109 244q17 200 -117 332q-70 52 -132 58l-97 8q-36 3 -40 56l2 26q3 34 90 66q176 114 190 267q10 115 -83 248q-99 115 -236 127q-272 24 -397 -231l-25 -102q-12 -129 81 -225l-3 -26l-7 -6l-29 2 q-110 88 -93 266v16q26 283 303 370q62 18 141 18q31 0 65 -3z" glyph-name="three" horiz-adv-x="1172" unicode="3"/><glyph d="M735 1831q85 0 85 -107q0 -230 -328 -519q-375 -342 -375 -392q35 -35 213 -61q209 -26 312 -26q22 0 22 22q69 274 169 516q18 32 22 32h26l7 -6v-23q-101 -391 -101 -528h4q154 29 385 100h16l10 -10v-22q0 -13 -259 -101q-55 -19 -165 -42q-55 -303 -55 -440 q0 -69 22 -205v-13l-6 -6h-26q-29 0 -65 256l-10 188l10 207l-49 -3h-100q-409 0 -480 91q-19 33 -19 61v49q0 121 395 421q204 171 282 279q75 117 75 184q0 28 -39 39q-80 -5 -250 -107h-22l-7 7v29q135 112 259 130h42z" glyph-name="four" horiz-adv-x="1233" unicode="4"/><glyph d="M1053 1759h29l7 -6v-26q-56 -49 -243 -146q-204 -104 -409 -162q-132 -32 -175 -32q26 -48 26 -94v-52q0 -68 -39 -133v-3h4q361 104 531 104q246 0 324 -192q23 -73 23 -152q0 -267 -159 -557q-131 -216 -353 -289q-66 -19 -120 -19h-45q-269 0 -454 288v26l6 7h30 q131 -184 298 -237q62 -19 107 -19h19q225 0 408 259q56 95 98 207q55 213 55 308q0 199 -172 233l-97 10q-110 0 -496 -87l-58 -4q-81 0 -81 59v19q0 40 61 123q20 48 20 81q0 73 -62 107q-32 3 -32 29v20q0 32 26 32h48q344 0 872 295z" glyph-name="five" horiz-adv-x="1216" unicode="5"/><glyph d="M890 1717h55q210 0 314 -188l7 -42v-19q0 -103 -159 -133l-49 -4q-82 0 -113 43v25l6 7h29q34 -29 78 -29q96 0 149 81l7 19q0 51 -120 136q-78 42 -149 42h-10l-3 4l-3 -4h-7q-194 0 -450 -194q-162 -173 -240 -415q-45 -168 -45 -285q0 -60 19 -184h7q212 353 554 353 q407 0 524 -295q33 -91 33 -195v-25q0 -307 -217 -412q-164 -93 -337 -93q-315 0 -535 274q-48 94 -68 146h-3q-110 -261 -168 -508l-65 -292h-29l-7 7v16q0 118 130 602q45 134 107 279q-43 134 -43 305q0 392 266 725q92 98 214 162q187 91 321 91zM238 463 q76 -200 130 -243q180 -181 386 -181h19q159 0 318 103q68 38 100 149q26 84 26 153q0 251 -237 356q-119 42 -230 42q-276 0 -499 -346z" glyph-name="six" horiz-adv-x="1398" unicode="6"/><glyph d="M1121 1704h49q42 0 55 -61v-39q-34 -91 -198 -188q-49 -16 -74 -62q-206 -295 -311 -521q-198 -444 -198 -690v-13l-3 -13l3 -13l3 -101l-3 -3h-29q-20 0 -20 156v19q0 474 399 1160v3q-100 -16 -191 -16h-94q-160 0 -434 45q-75 29 -75 65v39q0 84 262 191q30 13 56 13 h19l6 -6v-26q-2 -6 -90 -39q-101 -48 -185 -133l-6 -16q41 -33 132 -33q144 -16 279 -16q245 0 412 71q160 227 236 227z" glyph-name="seven" horiz-adv-x="1272" unicode="7"/><glyph d="M573 1672q376 0 548 -198q52 -69 52 -194v-10q0 -275 -156 -392q72 -19 172 -110q75 -76 75 -230q0 -374 -260 -486q-125 -52 -275 -52h-39q-317 0 -509 110q-181 126 -181 366v13q0 173 91 295l-4 3v29q13 35 140 85q32 6 32 13q-184 100 -184 282v9q0 200 165 340v33 q82 94 333 94zM318 1575v-4q29 0 29 -6v-26q-2 -7 -49 -19q-103 -78 -142 -214q-13 -40 -13 -81q0 -208 314 -279h3l139 3q94 0 208 -13q63 8 149 68q113 102 113 308q0 170 -317 269q-128 29 -224 29h-29q-93 0 -181 -35zM62 502q0 -211 187 -324q137 -71 389 -71h20 q348 0 457 246q42 114 42 220q0 157 -263 253h-3q-75 -16 -159 -16q-184 0 -376 62q-136 -21 -136 -39q0 -26 -9 -26q-64 0 -124 -153q-25 -89 -25 -152z" glyph-name="eight" horiz-adv-x="1357" unicode="8"/><glyph d="M548 1746q261 0 372 -81q33 -17 36 -26l45 7h26q85 0 117 -130q26 -98 26 -314l-4 -100q13 -84 13 -211v-6q0 -415 -168 -674q-186 -211 -405 -211h-42q-178 0 -366 139v26l6 7h23q19 -6 91 -49q149 -74 255 -74q198 0 376 200q153 236 153 600q0 87 -13 207h-4 q-132 -330 -502 -330h-10q-405 0 -537 282q-36 99 -36 191v58q0 196 113 331q196 158 435 158zM476 1623q149 -32 266 -32l32 3v3q-115 46 -204 46q-94 -6 -94 -20zM123 1257v-23q0 -232 211 -343q129 -52 259 -52q288 0 411 298q46 95 46 107q-53 220 -88 220 q-61 62 -97 78q-74 -16 -146 -16h-6q-246 0 -327 55l-10 20q-144 -58 -185 -120q-47 -48 -65 -188zM1027 1584v-3l49 -52q-19 38 -49 55z" glyph-name="nine" horiz-adv-x="1268" unicode="9"/><glyph d="M220 903h29q58 0 58 -68v-3q0 -78 -94 -117h-65q-75 0 -87 65v32q0 50 110 78q0 9 49 13zM194 862q-26 -5 -43 -17.5t-15 -25.5t22.5 -19t46.5 -2q27 5 44 17.5t15 26.5q-3 13 -23 19t-47 1zM220 182h29q58 0 58 -68v-3q0 -78 -94 -117h-65q-75 0 -87 65v32q0 50 110 78 q0 9 49 13zM194 141q-26 -4 -43 -17t-15 -26t22.5 -19t46.5 -2q27 5 44 17.5t15 26.5q-3 13 -23 19t-47 1z" glyph-name="colon" horiz-adv-x="345" unicode=":"/><glyph d="M220 820h29q58 0 58 -68v-3q0 -78 -94 -117h-65q-75 0 -87 65v33q0 49 110 77q0 9 49 13zM194 780q-26 -5 -43 -17.5t-15 -25.5q2 -14 22.5 -19.5t46.5 -1.5q27 5 44 17.5t15 26.5q-3 13 -23 19t-47 1zM172 145h5q96 -100 96 -283q0 -118 -179 -302h-5l-9 13 q37 119 60 323q37 83 37 164l-14 73z" glyph-name="semicolon" horiz-adv-x="376" unicode=";"/><glyph d="M220 820h29q58 0 58 -68v-3q0 -78 -94 -117h-65q-75 0 -87 65v33q0 49 110 77q0 9 49 13zM194 780q-26 -5 -43 -17.5t-15 -25.5q2 -14 22.5 -19.5t46.5 -1.5q27 5 44 17.5t15 26.5q-3 13 -23 19t-47 1zM172 145h5q96 -100 96 -283q0 -118 -179 -302h-5l-9 13 q37 119 60 323q37 83 37 164l-14 73z" glyph-name="semicolon" horiz-adv-x="376" unicode=";"/><glyph d="M1082 1507h23l6 -6v-26q-18 -18 -239 -114q-432 -205 -606 -333q-59 -52 -59 -65h4q79 -63 473 -178q242 -72 382 -149v-30l-7 -6h-22q-176 75 -694 185q-173 50 -230 97q-32 44 -32 61v33q0 101 191 197q238 133 810 334z" glyph-name="less" horiz-adv-x="1226" unicode="&lt;"/><glyph d="M439 1180q98 -29 130 -29l113 7l3 -4v-29q0 -18 -155 -52l-75 -3h-13q-103 0 -123 7q-99 22 -243 42l-3 3v29q0 14 133 23q0 6 65 6q0 4 64 7zM439 844q98 -29 130 -29l113 6l3 -3v-29q0 -18 -155 -52l-75 -3h-13q-103 0 -123 6q-99 23 -243 43l-3 3v29q0 14 133 23 q0 6 65 6q0 4 64 7z" glyph-name="equal" horiz-adv-x="772" unicode="="/><glyph d="M920 1173q191 -96 191 -197v-33q0 -17 -32 -61q-57 -47 -230 -97q-518 -110 -693 -185h-23l-7 6v30q140 77 383 149q393 115 473 178h3q0 13 -58 65q-175 128 -606 333q-221 96 -240 114v26l6 6h23q572 -201 810 -334z" glyph-name="greater" horiz-adv-x="1194" unicode="&gt;"/><glyph d="M535 1646q179 0 236 -136q16 -36 16 -84v-42q0 -243 -320 -726q-88 -148 -88 -211q0 -50 94 -68l3 -3v-26l-6 -6h-36q-110 0 -110 120q0 119 168 408q172 339 172 508q0 156 -162 156h-13q-244 0 -324 -172q-16 -50 -16 -87q0 -127 100 -227q39 -29 65 -29h20l6 -7v-29 l-6 -6h-46q-112 0 -191 194q-16 55 -16 101v55q0 201 246 288q110 29 208 29zM447 172h29q59 0 59 -68v-3q0 -78 -94 -117h-65q-75 0 -88 65v32q0 50 111 78q0 9 48 13zM421 131q-26 -4 -43 -17t-14 -26q1 -13 22 -19t47 -2q26 5 43 17.5t15 26.5q-3 13 -23 19t-47 1z" glyph-name="question" horiz-adv-x="864" unicode="?"/><glyph d="M1047 1098q403 0 657 -350q110 -178 110 -379q0 -337 -278 -443q-60 -20 -133 -20h-84q-28 -103 -42 -103h-26l-7 6v13l16 84h-51q-563 0 -687 214q-13 38 -13 58v39q0 172 304 236l78 7q190 0 376 -149q0 74 -84 343q-58 123 -166 162l-39 10q-90 0 -155 -185h-36v26 q0 101 91 201q53 33 91 33h52q119 0 239 -143q98 -153 98 -282q9 -38 9 -178l-3 -84q105 -111 123 -166v-19l-6 -7h-29l-94 104l-26 -174h48l29 -4q94 0 221 100q120 128 120 295q0 254 -221 467q-218 181 -437 181h-3l-10 3l-16 -3h-7q-348 0 -596 -236 q-191 -207 -191 -467q0 -269 233 -492q110 -82 214 -129q192 -78 470 -78q256 0 466 22h13v-32q0 -33 -609 -49q-541 0 -800 409q-94 177 -94 378q0 392 305 622q236 159 580 159zM629 191q0 -67 181 -143q125 -47 301 -74l159 -16l10 165l-3 78q-198 158 -350 158 q-111 0 -243 -90q-55 -54 -55 -78z" glyph-name="at" horiz-adv-x="1947" unicode="@"/><glyph d="M877 2214q122 0 169 -149q90 -298 90 -998v-81q223 74 541 191h23l7 -6v-26q0 -11 -234 -98l-337 -123l4 -16l-4 -81v-39q0 -331 -45 -900q-14 -36 -45 -36h-33q-45 0 -45 130q-58 289 -208 469q-89 109 -197 195l-84 58q-171 -49 -179 -58q-178 -730 -304 -1085 q-141 -328 -324 -328h-32q-128 0 -182 159q-8 33 -13 88q0 124 49 217h29l7 -7v-19q-39 -118 -39 -175q0 -138 116 -201l46 -13q91 0 201 143q94 120 243 715l116 486q-229 -65 -330 -65h-71q-211 0 -331 130q-19 32 -19 62v38q0 98 236 153q102 19 185 19h84q148 0 317 -55 q182 773 373 1141q88 134 162 158zM368 879q55 -23 172 -84q188 55 473 149l3 162q0 738 -87 949q-28 52 -58 52q-61 0 -175 -217q-167 -367 -331 -1011h3zM-457 762q22 -54 136 -100q103 -29 178 -29q106 0 375 74l26 104q-192 68 -349 68q-199 0 -340 -78q-26 -25 -26 -39 zM611 746v-3q269 -191 383 -457h3l16 593h-3zM336 775l-13 -45l71 19q0 8 -58 29v-3z" glyph-name="A" horiz-adv-x="1327" unicode="A"/><glyph d="M714 1937l26 2l7 -6l2 -19l-30 -110q-9 -38 -8 -56q152 78 310 92q333 29 504 -255q42 -95 52 -216q19 -218 -105 -357v-4q281 -132 307 -422l4 -48q3 -39 3 -75q0 -236 -140 -367q-129 -105 -350 -124l-23 -2q-55 -4 -116 -4q-237 0 -557 71l1 -3l-80 26 q-212 56 -412 133q-333 45 -447 35l-173 -31l-11 9l-2 22q0 21 198 46l29 3q395 -1 551 -68q125 -41 270 -78q-1 612 18 802q28 416 72 663l-81 -85l-35 -3l-3 32q76 98 139 159q35 165 80 238zM610 113q395 -82 633 -62q339 39 411 251q31 131 22 229q-22 254 -272 364 q-48 19 -63 17q-122 -69 -319 -87q-219 -18 -322 47q-18 14 -20 47q-7 71 140 110q89 30 214 42q179 15 327 -24q152 124 133 340q-25 290 -332 381q-87 17 -158 12q-146 -13 -309 -108q-43 -290 -40 -996zM912 933l1 -3l126 1l13 1l93 15v3l-140 -2z" glyph-name="B" horiz-adv-x="1875" unicode="B"/><glyph d="M859 1850h48q234 0 340 -201q26 -62 26 -133q0 -195 -184 -272q-13 -6 -36 -6h-52q-104 0 -162 145l-6 59v10q2 72 19 74h26l7 -6v-13q0 -23 -10 -52q0 -54 65 -130q51 -33 84 -35q60 0 139 97q42 66 42 120q0 113 -120 204q-94 55 -184 55q-146 0 -383 -133 q-91 -51 -213 -198q-185 -249 -185 -606v-22q0 -438 246 -635q134 -97 308 -97q245 0 444 178q113 131 113 275v62l7 6h26q9 -3 9 -19l4 -65q0 -324 -363 -467q-121 -45 -237 -45h-58q-333 0 -506 321q-113 227 -113 554q0 413 237 670q156 162 275 208q198 97 347 97z" glyph-name="C" horiz-adv-x="1366" unicode="C"/><glyph d="M565 1937l26 1l7 -5l2 -20l-27 -103l-8 -56q139 74 289 87q428 37 629 -465q72 -196 91 -402l8 -97q7 -83 7 -164q0 -223 -52 -438q-105 -266 -440 -295l-51 -5q-192 -16 -516 8v-3l-102 7q-422 79 -561 147q-98 39 -144 34q-111 -33 -104 -106l1 -7q6 -72 160 -164 l3 -32l-39 -4q-166 83 -175 186l-4 38v13q0 96 134 132l29 4q82 6 169 -34q368 -112 559 -118q23 404 -11 787q2 536 32 750q-73 -46 -192 -189q-42 -71 -41 -92l-29 -2l-7 6l-2 29q-8 85 224 296q71 42 68 77q36 161 67 199zM538 68q310 -13 486 2l10 1q307 27 385 252 q26 47 41 378q11 140 -2 289q-45 510 -339 712q-139 78 -278 66q-157 -14 -290 -106q-24 -326 26 -905q0 -408 -39 -689z" glyph-name="D" horiz-adv-x="1669" unicode="D"/><glyph d="M680 1827h62q269 0 544 -252v-30l-6 -6h-23q-13 0 -78 58q-244 169 -444 169q-162 0 -311 -104q-90 -82 -90 -165q0 -104 142 -195q110 -55 224 -55h94q39 -9 39 -35v-39q0 -42 -127 -49q-246 -58 -337 -116q-262 -140 -262 -402v-23q0 -215 130 -366q149 -146 372 -146 q271 0 512 195q92 89 126 155h36v-29q-93 -211 -382 -334q-153 -58 -302 -58h-38q-372 0 -516 337q-45 146 -45 272v23q0 385 411 541l49 16v3q-214 100 -214 302q0 260 373 330z" glyph-name="E" horiz-adv-x="1360" unicode="E"/><glyph d="M1435 1740h29q35 0 39 -45v-17q0 -44 -94 -74q-231 -109 -427 -263q-109 -109 -130 -194q-19 -41 -45 -159l107 7q210 -5 210 -23v-26q0 -7 -136 -36q-146 -55 -201 -55q-42 -307 -94 -456q-145 -399 -307 -399h-10q-141 0 -188 292v29l6 6h26q9 -7 42 -133 q60 -136 117 -136q62 14 139 136q75 141 117 315q49 239 49 320l-98 -38h-19l-6 6v29q63 70 132 107q14 213 104 386q103 167 308 269v3h-10l-716 48h-45q-232 -2 -282 -74l-7 -29l7 -36v-23l-7 -6h-26q-14 0 -19 68v6q0 125 230 146q95 10 207 10l661 -19q217 0 298 45 q22 13 39 13z" glyph-name="F" horiz-adv-x="1126" unicode="F"/><glyph d="M910 1869h39q243 0 328 -171q13 -29 13 -62v-42q0 -105 -124 -198q-49 -32 -100 -32h-26q-116 0 -172 139q-9 30 -9 72q3 75 19 77h26l6 -6v-13l-9 -52q0 -87 103 -155l49 -10q79 0 162 136l16 55q0 79 -107 149q-89 42 -184 42q-224 0 -496 -184q-331 -269 -331 -726 q0 -461 253 -681q135 -94 295 -94h13q249 0 437 188q94 115 94 250q0 194 -94 253h-3q-281 -69 -337 -69h-45q-18 0 -29 20v45q8 33 129 81q84 29 162 29h42q76 0 136 -38q73 13 175 13h26q189 0 282 -81v-26l-6 -7h-20q-63 31 -126 52q-80 13 -130 13q-57 0 -142 -13 q71 -94 71 -292q0 -328 -363 -479q-132 -52 -279 -52h-12q-472 0 -606 512q-36 157 -36 330q0 775 700 998q123 29 210 29z" glyph-name="G" horiz-adv-x="1516" unicode="G"/><glyph d="M1181 1929h39q81 0 81 -311q0 -294 -129 -784q-44 -126 -127 -165l-3 -3v-117q0 -362 101 -573v-23l-7 -6h-26q-20 9 -61 129q-75 238 -75 570q-49 -9 -94 -9h-68q-125 0 -441 68v-55q0 -320 -61 -748q-47 -192 -65 -192h-26l-6 7v23q48 168 48 424l-16 482l3 85 q-92 19 -149 19q-122 0 -164 -117l-7 -42v-6q0 -65 39 -104v-26l-7 -6h-32q-49 43 -49 146q0 145 114 194q50 19 100 19h39q65 0 123 -9q1 243 71 606q45 145 71 165h26l7 -7v-19q-65 -185 -65 -425l-3 -81l6 -256q318 -61 447 -61q102 0 159 32q0 442 120 1021 q38 155 87 155zM1172 1615q-107 -528 -107 -664l-13 -120v-3h3q42 92 97 486l23 298v3h-3z" glyph-name="H" horiz-adv-x="1279" unicode="H"/><glyph d="M6 1620h30q80 -68 142 -68q54 0 75 49q17 16 29 16h32q26 0 26 -36q0 -41 -42 -71q-61 -205 -61 -337l-65 -723l-20 -444l-9 -6h-26l-7 6q-23 417 -23 707q0 368 56 570q16 92 55 211h-10q-113 0 -188 94v26z" glyph-name="I" horiz-adv-x="362" unicode="I"/><glyph d="M577 1684h29q81 -72 146 -72q59 0 81 52q12 10 22 10h36l10 -10v-39q0 -18 -42 -52q-101 -296 -101 -981l7 -357q0 -357 -78 -534q-41 -121 -136 -282q-150 -214 -266 -214h-55q-105 0 -181 218q-49 193 -49 301v10l6 6h26q10 0 26 -120q44 -189 91 -262q61 -84 107 -84 q72 0 194 165q75 125 123 259q69 220 69 323l-4 253q0 655 114 1196l29 90h-7q-129 0 -204 88v29z" glyph-name="J" horiz-adv-x="894" unicode="J"/><glyph d="M1963 2199h17q217 0 272 -337v-45l-7 -6h-26q-7 4 -29 116q-81 217 -217 217q-71 0 -178 -68q-145 -136 -220 -253q-249 -358 -457 -602q-254 -256 -347 -298q-78 -55 -201 -104v-3q409 -126 745 -418q190 -195 240 -308q120 -233 120 -443v-10l-6 -7h-26q-9 0 -23 120 q-39 153 -84 243q-222 443 -885 693q-158 52 -285 81q-16 0 -16 -120q-26 -341 -55 -466q-29 -129 -68 -223l-20 -26h-32v32q74 202 74 544v113l-3 137h-9q-196 0 -386 77q-13 17 -13 29v39q0 33 52 39q150 0 353 -39l-3 39v29q0 400 94 765l39 97q-42 14 -88 59v25l7 7h32 q57 -39 75 -39h3q4 26 26 26h29l10 -10v-35q0 -12 -23 -39q-81 -205 -81 -571l3 -272l-3 -90q77 4 269 87q128 62 330 240q259 262 376 434q195 260 327 405q131 139 298 139z" glyph-name="K" horiz-adv-x="1748" unicode="K"/><glyph d="M424 1877h20l152 -55h3q4 10 20 10h32q65 -19 65 -49v-19q0 -17 -10 -20h-39q-22 0 -35 7q-97 -221 -97 -606v-386q0 -312 -39 -509h3q118 0 583 -171q161 -42 230 -42q104 0 120 64q-19 68 -107 130l-19 16v29l6 7h20q81 -33 142 -130l10 -48v-20q0 -106 -198 -106 q-175 0 -538 126q-148 39 -278 55q-33 -131 -110 -191q-75 -49 -133 -49h-29q-125 0 -185 117q-13 22 -13 58v29q0 112 168 136l133 3h68q72 264 72 674q16 422 45 558q0 56 78 265l3 4l3 9h-3q-147 62 -149 72v25zM113 108q0 -23 62 -62l26 -6q63 0 133 117v6h-4 q-157 0 -207 -36z" glyph-name="L" horiz-adv-x="1487" unicode="L"/><glyph d="M826 2087h25l7 -7v-29q-128 -112 -201 -418q72 -68 178 -505q130 -444 247 -444q81 26 145 123q127 207 247 574v9q0 353 61 353l26 4h7q71 0 71 -146q0 -126 -75 -376v-65q0 -824 185 -1214v-23l-7 -6h-25q-37 39 -91 197q-55 162 -97 421q-49 390 -49 489h-3 q-184 -440 -389 -440h-19q-209 0 -324 580q-59 255 -104 375h-3q-55 -278 -120 -1011q-73 -445 -153 -641q-145 -337 -346 -337h-26q-136 0 -191 169q-10 54 -10 94q0 111 52 210h29l7 -6v-19q-36 -119 -36 -169q0 -142 127 -204l29 -6q74 0 168 110q57 79 97 181 q45 120 91 392q133 981 223 1325q-94 123 -171 123q-43 -7 -68 -42v-39h-33l-13 13v42q26 71 97 71l26 4q94 0 185 -94h3q81 279 221 382z" glyph-name="M" horiz-adv-x="1798" unicode="M"/><glyph d="M540 2122h26l6 -6v-29q-104 -89 -159 -318l-19 -126q430 -635 674 -1060h3q23 264 78 545q71 302 152 466q114 204 227 204h19l7 -6v-26q0 -5 -58 -26q-107 -75 -162 -233q-62 -125 -130 -519q-42 -354 -42 -567q133 -270 133 -337l3 -39v-32q-9 -103 -84 -103h-39 q-114 0 -114 339v78q-124 282 -521 946l-156 253h-3q-10 -104 -13 -301l19 -687v-39q0 -700 -123 -858q-81 -127 -207 -127h-3q-195 0 -236 263l-4 52q0 103 17 110h26l6 -7v-3l-3 -74q0 -158 123 -253q46 -19 68 -19q55 0 129 87q91 128 91 508l-10 379q0 694 55 1079 q-115 149 -191 149q-36 0 -71 -42v-39h-32l-13 13v42q0 49 97 75h29q98 0 201 -114q59 272 168 373z" glyph-name="N" horiz-adv-x="1386" unicode="N"/><glyph d="M859 1853h48q235 0 340 -204q26 -52 26 -129v-13q0 -122 -100 -224q-39 -74 -39 -146q0 -112 126 -486l13 -136q0 -358 -431 -492q-102 -23 -191 -23h-3q-447 0 -593 460q-55 182 -55 421q0 658 583 911q160 61 276 61zM113 813q0 -436 243 -638q136 -100 305 -100h16 q237 0 431 171q120 133 120 279v26q0 63 -104 337q-52 142 -52 278q0 135 88 227q39 67 39 117q0 107 -127 204q-95 49 -175 49q-159 0 -405 -149q-379 -273 -379 -801z" glyph-name="O" horiz-adv-x="1352" unicode="O"/><glyph d="M807 2035h32q530 0 619 -324q10 -47 10 -91q0 -321 -444 -480q-130 -35 -496 -87l-210 -52v-61q0 -320 -62 -749q-47 -191 -65 -191h-26l-6 6v23q49 171 49 421l-17 509h-3q-233 -96 -233 -204q0 -49 107 -146v-26l-7 -6h-29q-123 85 -123 181v23q0 146 295 262v4 q0 203 61 592q33 125 55 172q-185 -129 -268 -327h-32l-7 6v23q103 285 392 434q185 88 408 88zM308 1328l6 -243h4q184 59 560 127q314 94 412 262q55 90 55 162q0 155 -217 256q-194 58 -357 58q-205 0 -395 -100q0 -27 -29 -113q-39 -162 -39 -409z" glyph-name="P" horiz-adv-x="951" unicode="P"/><glyph d="M859 1816h48q235 0 340 -205q26 -52 26 -129v-13q0 -122 -100 -224q-39 -74 -39 -145q0 -112 126 -486l13 -140q0 -248 -226 -402q287 -203 401 -203h29l88 6h16l7 -6v-26q-55 -33 -153 -33h-29q-155 0 -447 166l-58 28q-118 -41 -250 -41h-3q-69 0 -136 9v-19l-7 -6h-25 q-9 0 -20 38q-206 66 -308 227q-152 235 -152 632q0 658 583 910q160 62 276 62zM113 776q0 -494 305 -681l36 -13v7q0 95 103 123l52 3h20q132 0 349 -100q250 145 250 372v26q0 63 -104 337q-52 142 -52 279q0 134 88 226q39 68 39 117q0 107 -127 204q-95 49 -175 49 q-159 0 -405 -149q-379 -273 -379 -800zM509 59q77 -22 152 -22h16q59 0 136 16v3q-165 81 -227 81q-77 -19 -77 -78z" glyph-name="Q" horiz-adv-x="1398" unicode="Q"/><glyph d="M726 2020q459 0 593 -236q64 -104 64 -214v-58q0 -276 -307 -477q-211 -110 -503 -110q606 -828 947 -929q22 6 22 22l-9 45v17l6 6h29q14 0 20 -74q0 -62 -52 -62h-29q-111 0 -367 204q-187 161 -388 392q-194 220 -295 360q-17 26 -78 26q-120 23 -120 71v36 q0 45 65 45h16q54 0 136 -49h4q493 0 712 276q88 125 88 246q0 141 -133 266q-161 120 -447 120h-16q-209 0 -396 -101q0 -32 -29 -116q-39 -162 -39 -409l10 -411q-22 -548 -62 -716q0 -55 -61 -201h-29l-7 7v22q49 169 49 424l-16 486q0 171 52 613q29 158 68 256l6 10h-3 q-162 -128 -214 -231q-30 -42 -55 -103h-32l-7 6v16q19 102 165 273q249 252 642 252z" glyph-name="R" horiz-adv-x="1589" unicode="R"/><glyph d="M862 1863h29q386 0 700 -324l3 -3v-29l-6 -7h-30q-311 298 -657 298q-319 0 -431 -249q-23 -68 -23 -107q0 -123 130 -243q134 -123 389 -123h174q351 0 474 -328q19 -55 19 -113v-36q0 -232 -237 -421q-243 -178 -531 -178h-55q-386 0 -726 321q-143 149 -262 149 q-100 -19 -100 -84q0 -39 58 -98v-26l-6 -6h-29q-69 55 -69 113v39q0 97 137 114h45q131 0 317 -185q312 -253 635 -253q282 0 525 191q117 108 149 198q23 41 32 130q0 147 -181 298q-96 65 -357 65q-379 0 -534 223q-84 100 -84 246q0 237 226 370q108 58 276 58z" glyph-name="S" horiz-adv-x="1736" unicode="S"/><glyph d="M1795 1876h13q249 0 308 -75l6 -19v-29q0 -120 -586 -279q-153 -32 -308 -32l-181 10v-4q-17 -112 -17 -210v-33q0 -101 17 -389q0 -613 -107 -816h-30l-6 6v13q29 131 29 156q10 53 13 178l-23 451v35q0 365 62 625q-440 114 -574 114h-25q-175 0 -299 -58l-25 -30 q25 -76 194 -171l10 -10v-26l-7 -6h-22q-237 102 -237 210v10q0 112 259 152q94 16 198 16q168 0 564 -77h9q17 35 26 38h26l7 -6v-19l-4 -23q127 -20 230 -20q269 0 665 153q74 40 74 58q-69 45 -178 55q-88 11 -88 20v25z" glyph-name="T" horiz-adv-x="1626" unicode="T"/><glyph d="M168 1763q113 0 156 -107q36 -72 36 -415q0 -78 -62 -619v-55l-3 -16q0 -274 162 -366q118 -62 285 -62q240 0 353 314q75 234 75 545v58q0 517 -101 596q-46 0 -58 39v32q6 13 23 13h19q33 0 71 -42l62 -6l120 3l3 -3v-29q0 -17 -130 -17h-19v-3q65 -154 65 -265 q26 -223 26 -409v-113q-6 -641 -318 -794q-89 -42 -214 -42h-13q-349 0 -463 237q-49 100 -49 246v52q0 134 78 609q16 112 16 308q0 163 -61 226q-36 29 -71 29q-107 -15 -107 -97l-4 -22q0 -42 26 -104v-20l-6 -6h-29q-36 49 -36 110v62q0 94 107 129z" glyph-name="U" horiz-adv-x="1330" unicode="U"/><glyph d="M162 1759h6q111 0 153 -100q33 -37 42 -392q19 -138 68 -295q74 -207 168 -373q68 -123 214 -291q153 -155 276 -185h6q75 233 75 800v65q0 576 -101 645q-46 0 -58 39v32q6 13 23 13h22q25 0 78 -45l62 -3l110 3l3 -3v-30q0 -16 -120 -16h-29v-3q71 -166 71 -330 q29 -290 29 -616q0 -493 -64 -635q-30 -39 -65 -39h-29q-337 0 -655 651q-162 370 -162 674v146q0 174 -84 224l-45 9q-71 0 -101 -68q-10 -21 -10 -52q0 -41 26 -103v-20l-6 -6h-29q-36 48 -36 110v58q0 95 97 130z" glyph-name="V" horiz-adv-x="1347" unicode="V"/><glyph d="M1714 2137h52q118 0 178 -155q13 -45 13 -101v-3q0 -120 -52 -214h-29l-7 7v19q27 82 36 162q0 133 -110 201l-45 13q-98 0 -211 -175q-92 -191 -146 -444q-152 -684 -152 -1237l113 -373q13 -46 13 -90v-10l-6 -7h-26q-9 0 -20 69l-71 203h-3v-48l-7 -6h-25 q-12 0 -26 226q-110 187 -422 690q-26 -82 -149 -214q-291 -360 -291 -389q-52 -65 -52 -120q-11 -190 -45 -190q0 -7 -17 -7h-35q-55 11 -55 107q0 82 61 220l7 243v88q0 733 -185 1137v26l6 6h26q49 -64 101 -233q139 -479 139 -1098v-13h3q81 144 315 392q52 62 103 181 q-51 108 -51 165v39q0 75 100 75t100 -127q0 -78 -32 -168q101 -200 366 -655v-3h3v3l-3 117q0 858 172 1277q103 269 227 359q77 55 139 55z" glyph-name="W" horiz-adv-x="1566" unicode="W"/><glyph d="M117 2055q175 0 317 -301v-32h-32q-6 0 -52 81q-135 188 -233 188q-49 0 -110 -91l-13 -52q3 -117 200 -363q153 -176 438 -437q348 408 424 593q59 136 59 236l3 3h29q10 0 10 -48q0 -297 -396 -813l-45 -62q371 -385 561 -635q74 -95 74 -159v-65q-23 -142 -142 -142 h-43q-103 0 -256 133v29l7 6h29q150 -113 237 -113q67 0 100 87l3 23q0 67 -123 198q-136 163 -525 534l-298 -353q-291 -366 -291 -544q0 -39 32 -116v-30h-32q-52 52 -52 166v13q0 245 369 731l175 227q-207 199 -317 331q-305 353 -305 541v35q0 141 152 198z" glyph-name="X" horiz-adv-x="1438" unicode="X"/><glyph d="M243 1716h32q103 0 133 -55q29 -47 29 -114v-74q0 -98 -90 -580q-17 -117 -17 -182q0 -168 98 -226q81 -26 142 -26q349 0 551 635q62 224 117 502q17 26 45 26h19q49 -7 49 -42v-10q-45 -686 -94 -943q-57 -273 -123 -424q-170 -376 -502 -505q-285 -98 -428 -98h-65 q-139 0 -139 107v10q0 93 104 169h32l7 -7v-26q-94 -78 -94 -142q0 -49 113 -62q280 37 454 123q247 107 392 379q71 142 113 308q42 171 71 443v10h-3q-216 -551 -609 -551q-331 0 -331 286v87q0 131 111 629q16 88 19 158q0 143 -126 143q-83 0 -117 -88l-6 -42 q0 -75 55 -136q24 -9 26 -16v-26l-7 -6h-23q-72 0 -97 162v61q0 111 123 139z" glyph-name="Y" horiz-adv-x="1381" unicode="Y"/><glyph d="M331 1641q265 0 690 -192l123 -45q108 169 243 169h36q197 0 262 -111l3 -19v-42q0 -90 -233 -126l-68 -4q-81 0 -178 23q-163 -271 -418 -781l-217 -360h3q1222 -524 1630 -524h16q90 0 172 39h22l7 -7v-25q-64 -56 -227 -56q-459 0 -1685 496q-112 -162 -246 -162h-39 q-143 0 -204 162l-3 29v52q0 88 100 123l62 6q89 0 272 -81q137 217 486 869l156 259l-438 178q-212 71 -343 71q-146 -3 -276 -58l-19 -19q27 -56 201 -117q73 -21 81 -29v-26l-7 -7h-19q-171 33 -278 111q-30 30 -30 48v33q0 97 353 123h10zM1264 1372q38 -10 110 -16 q100 0 211 58l3 3v3q-55 52 -152 52h-10q-92 0 -136 -68zM120 134q0 -45 68 -97l55 -16q70 0 149 103q-164 62 -200 62h-4q-64 -7 -64 -42z" glyph-name="Z" horiz-adv-x="1464" unicode="Z"/><glyph d="M279 2022h13l6 -10v-38q0 -13 -152 -38q0 -6 -62 -14v-5q62 -992 62 -1190v-38q0 -648 -42 -999h3q57 48 120 48h10q55 -3 55 -23v-38q0 -10 -10 -10l-52 5q-49 -8 -172 -135l-16 -5h-32q-10 5 -10 30v28q0 16 32 120q13 127 13 290q0 285 -19 722l3 253l-6 999 q0 38 142 38q0 8 114 10z" glyph-name="bracketleft" horiz-adv-x="461" unicode="["/><glyph d="M316 1893l-22 -62q-96 -264 137 -669q153 -232 203 -346q189 -352 189 -649q0 -153 -50 -291q-22 -52 -30 -52h-1l-32 13l-2 4q65 180 6 451q-19 96 -159 363q-103 152 -206 372q-164 306 -164 553q0 118 38 223q42 112 56 112h1l32 -13z" glyph-name="backslash" horiz-adv-x="938" unicode="\"/><glyph d="M295 2012q142 0 142 -38l-6 -999l3 -253q-19 -437 -19 -722q0 -163 13 -290q32 -104 32 -120v-28q0 -25 -10 -30h-32l-16 5q-123 127 -172 135l-52 -5q-10 0 -10 10v38q0 20 56 23h9q63 0 120 -48h3q-42 351 -42 999v38q0 198 62 1190v5q-62 8 -62 14q-152 25 -152 38v38 l6 10h13q114 -2 114 -10z" glyph-name="bracketright" horiz-adv-x="538" unicode="]"/><glyph d="M956 792v-23l-8 -6l-26 1q-17 19 -105 244q-190 438 -313 616q-51 60 -64 60v-3q-65 -77 -193 -467q-80 -240 -161 -377l-30 1l-6 6l1 23q80 173 207 687q55 172 105 227q43 30 61 30h1l32 -1q102 -3 192 -197q125 -243 307 -821z" glyph-name="asciicircum" horiz-adv-x="1058" unicode="^"/><glyph d="M551 -83q560 -10 560 -29v-32l-541 -56l-567 10l-3 3v30q0 11 159 26q336 48 392 48z" glyph-name="underscore" horiz-adv-x="1186" unicode="_"/><glyph d="M182 2233l-13 -73q0 -81 31 -165q20 -204 50 -323l-8 -12h-4q-148 184 -148 301q0 184 79 284h4z" glyph-name="grave" horiz-adv-x="421" unicode="`"/><glyph d="M460 978h52q119 0 240 -142q97 -153 97 -282q10 -38 10 -178l-4 -85q105 -110 123 -165v-19l-6 -7h-29l-94 104l-26 -175h19q52 0 52 -10v-25q0 -10 -42 -10h-42q-28 -104 -42 -104h-26l-7 7v23l17 74h-52q-562 0 -687 214q-13 38 -13 58v39q0 171 305 236l77 7 q191 0 376 -149q0 74 -84 343q-58 123 -165 162l-39 10q-91 0 -156 -185h-29l-6 7v19q0 107 94 201q45 32 87 32zM120 269q0 -67 181 -143q125 -48 302 -74l158 -16l10 165l-6 81q-198 155 -347 155q-111 0 -243 -90q-55 -54 -55 -78z" glyph-name="a" horiz-adv-x="972" unicode="a"/><glyph d="M505 1575q124 -18 124 -111v-35q0 -24 -10 -26h-26l-7 6v23q0 67 -77 91q-74 -15 -179 -201q-61 -121 -136 -350q-81 -321 -81 -447v-3h4q34 86 120 210q90 114 223 114q178 0 233 -127q52 -99 52 -214v-64q0 -258 -223 -396q-101 -45 -221 -45h-32q-178 0 -243 194 q-26 105 -26 217q0 374 224 866q148 298 281 298zM113 395q0 -99 59 -207q51 -65 126 -65h29q228 0 311 256q16 64 16 110v23q0 125 -74 217q-47 45 -133 45h-3q-154 0 -331 -379z" glyph-name="b" horiz-adv-x="799" unicode="b"/><glyph d="M460 991h32q112 0 153 -113l3 -32v-36q0 -49 -36 -75h-32l-7 7v26q26 27 26 45v10q0 59 -81 97q-29 3 -29 7q-76 0 -181 -85q-185 -235 -185 -534q0 -150 120 -204q53 -20 94 -20q185 0 311 130q52 65 52 123h32l7 -7v-35q0 -143 -195 -243q-109 -52 -220 -52h-42 q-240 0 -279 292l-3 64v20q0 174 139 411q132 204 321 204z" glyph-name="c" horiz-adv-x="777" unicode="c"/><glyph d="M849 1581h32q26 0 33 -36v-35q0 -509 -114 -943q-48 -126 -48 -168l-4 -114l7 -185l-3 -3h-29q-15 0 -23 217h-3q-156 -314 -418 -314q-187 0 -250 152q-29 63 -29 159v36q0 235 165 440q113 104 227 104h32q146 0 266 -168v-30l-6 -6h-26q-131 152 -243 152 q-89 0 -201 -107q-133 -191 -133 -366v-32q0 -171 130 -227l58 -10q157 0 285 208q52 83 107 249q62 201 62 347q55 550 97 664q17 16 29 16z" glyph-name="d" horiz-adv-x="929" unicode="d"/><glyph d="M593 962h29q142 0 169 -107l3 -26v-38q0 -148 -211 -328q-172 -120 -372 -120h-36l-7 7v26q0 9 107 19q227 63 341 214q87 117 87 195q0 37 -45 51l-36 7q-106 -5 -269 -139q-189 -188 -217 -279q-32 -77 -36 -130q0 -92 127 -194q86 -52 188 -52q153 0 278 104 q55 50 55 74l4 3h29l6 -6v-23q0 -85 -214 -194q-92 -26 -168 -26h-49q-239 0 -343 237q-13 49 -13 93q0 239 249 480q197 152 344 152z" glyph-name="e" horiz-adv-x="855" unicode="e"/><glyph d="M447 1633q76 0 104 -58q13 -29 13 -62v-36q0 -170 -153 -427q-29 -36 -35 -36h-29l-7 7v29q42 31 104 207q45 155 45 211q-10 74 -39 74h-3q-107 -30 -152 -94q-81 -141 -81 -249q-26 -137 -26 -302v-68l217 7l3 -3v-29q0 -11 -178 -101l-36 -3q26 -324 88 -590l23 -81 v-23l-7 -6h-26q-41 58 -113 366q-36 164 -59 331l-22 -4h-72l-6 7v29l91 52q-16 131 -16 272q0 413 230 544q72 36 142 36z" glyph-name="f" horiz-adv-x="524" unicode="f"/><glyph d="M732 831h39q36 0 39 -58v-88q0 -186 -39 -408q-108 -1027 -379 -1027h-71q-180 0 -246 117q-20 43 -20 81v45l7 7h25q5 0 20 -78q50 -116 223 -116h4q114 0 168 100q40 50 97 373l49 255h-3q-133 -174 -340 -174h-39q-191 0 -250 177q-16 45 -16 123q0 260 211 483 q134 114 259 114h45q128 0 169 -162v-7h3l6 149v26q0 68 39 68zM87 170q0 -149 124 -200l64 -10q208 0 328 249q55 160 55 204q0 218 -114 279l-45 10q-74 0 -188 -75q-126 -116 -149 -188q-75 -140 -75 -269z" glyph-name="g" horiz-adv-x="820" unicode="g"/><glyph d="M55 1521h26q13 0 55 -440q42 -408 42 -548l123 204q132 185 227 185h16q196 0 250 -334q16 -95 16 -214v-71q0 -99 -13 -301l-3 -3h-29l-10 9l3 175q0 511 -159 626q-31 21 -58 22q-83 -38 -178 -214q-182 -340 -182 -437q0 -192 -87 -230h-49q-35 0 -45 58v29 q0 90 87 305l4 178q0 311 -42 995z" glyph-name="h" horiz-adv-x="853" unicode="h"/><glyph d="M366 1390h29q59 0 59 -68v-3q0 -78 -94 -117h-65q-75 0 -88 65v32q0 50 111 78q0 9 48 13zM249 940h39q23 -13 23 -39v-16l-19 -120q-6 -73 -10 -441q15 -237 71 -237q87 33 159 166q36 62 65 178q1 13 9 13h26l7 -7v-9q0 -111 -75 -269q-93 -159 -191 -159h-16 q-107 0 -146 168q-32 139 -32 289l13 185q-123 -94 -240 -94h-6l-7 6v26q0 8 72 26q64 22 165 126q45 49 45 114q16 94 48 94zM340 1349q-26 -4 -43 -17t-14 -25q1 -14 22 -20t47 -2q26 5 43 17.5t15 26.5q-3 13 -23 19t-47 1z" glyph-name="i" horiz-adv-x="664" unicode="i"/><glyph d="M356 800h36q31 0 58 -260q42 -38 123 -58v-29l-6 -6h-26q-36 0 -84 19l3 -3v-4q20 -248 20 -411q0 -218 -72 -498q-60 -150 -113 -150h-78q-82 0 -181 224q-36 140 -36 178v10l6 6h30q8 -10 42 -132q94 -194 168 -214q50 0 88 201q18 90 29 686l-3 181q-36 89 -36 104 l-3 52q0 104 35 104zM366 1276h29q59 0 59 -68v-3q0 -78 -94 -117h-65q-75 0 -88 65v32q0 50 111 78q0 9 48 13zM340 1235q-26 -4 -43 -17t-14 -25q1 -14 22 -20t47 -2q26 5 43 17.5t15 26.5q-3 13 -23 19t-47 1z" glyph-name="j" horiz-adv-x="567" unicode="j"/><glyph d="M133 1551h26q15 0 72 -570q19 -182 32 -405q14 0 97 -29q270 388 412 388q105 0 136 -74q13 -37 13 -65v-29q-3 -55 -16 -55h-26q-7 0 -7 10l3 58q0 61 -74 97h-20q-103 -19 -327 -363v-3q259 -95 425 -382q81 -166 81 -266v-6l-7 -7h-26q-9 0 -29 69q-41 121 -191 274 q-105 92 -314 221q-102 -176 -130 -253q-9 -159 -91 -184h-45q-36 0 -45 54v17q0 44 61 158q20 148 20 318q-164 58 -207 58l-4 3v30l7 6h45q52 0 159 -19v22q0 287 -36 921zM266 479v-4l4 -13v-45l32 49z" glyph-name="k" horiz-adv-x="983" unicode="k"/><glyph d="M321 1597h22q46 0 46 -74v-94q0 -314 -104 -570q-39 -257 -39 -438v-61q7 -242 84 -295h4q63 14 129 139q39 77 39 126h29l10 -9v-26q0 -127 -123 -263q-40 -32 -68 -32h-36q-125 0 -155 382l-3 107v178l3 4v3h-3q-54 -55 -120 -91h-30l-6 7v29q165 120 165 191 q0 158 65 515q55 266 68 266z" glyph-name="l" horiz-adv-x="578" unicode="l"/><glyph d="M29 991h33q15 0 35 -499l3 -97h4q197 554 359 554h29q155 0 198 -298q13 -113 13 -188v-3h3q118 301 224 417q54 56 117 56q138 0 178 -195q22 -95 22 -249v-36q0 -169 -26 -437l-3 -4h-29q-6 0 -6 10l9 360q0 397 -120 466l-25 7q-62 -29 -124 -149q-122 -227 -256 -706 q-19 -20 -32 -20h-36q-26 0 -35 36v9l13 337q0 439 -94 473h-7q-76 -50 -133 -158q-131 -233 -239 -551q-21 -129 -46 -129l-26 -4h-3q-29 0 -29 26v32l32 156l7 262z" glyph-name="m" horiz-adv-x="1296" unicode="m"/><glyph d="M42 978h33q15 0 42 -506v-29l48 113q181 373 311 373h23q188 0 188 -441q0 -219 -39 -486h-32l-7 7l13 321q0 402 -110 495l-16 4h-7q-65 -45 -110 -136q-71 -121 -233 -542q-26 -57 -39 -145q-18 -36 -42 -36h-29q-31 0 -36 45v4q0 30 36 184q9 140 9 295v165 q0 187 -6 305z" glyph-name="n" horiz-adv-x="745" unicode="n"/><glyph d="M463 940q125 0 240 -146q84 -117 84 -298q0 -237 -162 -396q-120 -100 -249 -100h-36q-204 0 -311 214q-29 86 -29 149v61q0 213 159 415q42 46 58 46h20q6 0 6 -33q79 88 220 88zM249 687l4 -78l-4 -3h-35q-10 39 -10 71v46q0 67 33 116h-4q-99 -87 -152 -324l-10 -81 q0 -168 130 -278q74 -46 133 -46h9q156 0 289 220q52 108 52 208q0 189 -162 304q-57 26 -75 26h-10q-128 0 -178 -123z" glyph-name="o" horiz-adv-x="855" unicode="o"/><glyph d="M480 811h6q277 0 360 -266q9 -52 9 -94v-42q0 -237 -262 -417q-193 -98 -259 -98l-101 -22v-7q-13 -554 -61 -585h-26l-7 7v19l13 146q-6 267 -22 410l-4 -3h-3l-187 -7h-10l-7 7v26q0 12 113 19l91 16q-12 0 -23 577l-6 84h-26v36l23 25l-10 120l3 4h29q13 0 26 -81h4 q162 126 337 126zM152 620q85 -473 85 -590v-84q302 85 414 253q84 143 84 262v6q0 177 -191 250q-48 16 -90 16q-137 0 -302 -113z" glyph-name="p" horiz-adv-x="944" unicode="p"/><glyph d="M330 809q132 0 211 -84q0 29 7 29h29q93 -80 100 -114h3q12 159 23 159h29l7 -6v-7l-4 -39q13 -301 30 -301q22 -81 22 -149v-55q0 -60 -9 -84q6 -32 6 -94v-168q-6 -430 40 -584v-19l-7 -7h-26q-40 52 -74 227q-24 251 -46 444q-103 -87 -224 -87h-36q-182 0 -314 174 q-97 140 -97 327q0 291 224 412q58 26 106 26zM104 404q0 -225 214 -386q74 -38 126 -38h10q117 0 204 122v4l13 411q-42 115 -120 191q32 -50 32 -116v-39q0 -41 -10 -78h-32l-6 7l3 77q0 127 -139 172l-49 7h-10q-62 0 -152 -94q-84 -109 -84 -240z" glyph-name="q" horiz-adv-x="867" unicode="q"/><glyph d="M75 991h42q107 0 236 -298v-3q47 78 139 78h20l155 -23q90 0 169 149h29l7 -6v-20q-35 -111 -111 -158q-36 -26 -97 -26h-13q-42 0 -136 13q-69 0 -94 -88q-10 -40 -10 -81q59 -211 59 -382v-16q0 -130 -49 -130h-42q-49 0 -49 126q-16 210 -16 360q-3 75 -103 318 q-77 129 -120 129h-4q-21 0 -42 -74v-10l10 -52v-16l-6 -7h-30q-16 7 -19 78v29q12 110 75 110z" glyph-name="r" horiz-adv-x="850" unicode="r"/><glyph d="M366 894h58q78 -4 78 -16v-26q0 -6 -10 -6l-81 3q-71 0 -165 -65q-94 -84 -94 -146q0 -37 110 -52q82 13 250 56l42 3h52q131 0 188 -172v-55q0 -181 -240 -343q-126 -75 -279 -75q-147 0 -275 91v29l6 6h23q127 -61 214 -61h13q192 0 356 197q58 80 68 153 q-34 110 -123 110l-256 -36h-16q-128 0 -198 68q-16 29 -16 46v42q0 125 178 223q66 26 117 26z" glyph-name="s" horiz-adv-x="861" unicode="s"/><glyph d="M87 1614h39q59 0 120 -98q52 -179 52 -285h3q67 10 266 20q207 -13 308 -13h19q201 0 399 58h29v-36q-69 -44 -272 -90q-238 -46 -470 -46l-272 10v-3q29 -293 29 -681q4 -145 52 -311q26 -60 65 -74q43 5 103 61q38 60 46 117l3 3h29l7 -6v-23q0 -164 -169 -217h-23 q-139 0 -184 269q-29 101 -59 466l-3 62l3 334h-3q-130 0 -340 -94h-19l-7 6v29q117 99 366 146q0 251 -55 302q-29 25 -45 32q-36 -18 -36 -88q0 -24 19 -74v-19l-6 -7h-29q-32 33 -32 94v55q0 65 42 94z" glyph-name="t" horiz-adv-x="778" unicode="t"/><glyph d="M726 942h42q25 0 29 -33v-16l-52 -444q-16 -149 -16 -262q0 -112 32 -156v-26l-6 -6h-29q-36 0 -52 230v61l6 237v3h-3q-74 -193 -159 -330q-165 -240 -288 -240h-19q-117 0 -117 207q0 83 52 548v49q0 81 -42 106l-23 7q-25 -22 -39 -104q0 -52 -10 -52h-26l-6 7v58 q0 106 52 143l23 3h29q60 0 94 -81q13 -45 13 -120v-55l-23 -454q10 -152 32 -152q85 33 198 224q151 259 246 505q44 143 62 143z" glyph-name="u" horiz-adv-x="861" unicode="u"/><glyph d="M84 978h10q109 0 172 -223q118 -366 178 -506q47 -96 91 -129l3 -3h3q42 15 68 74q58 154 58 250q13 84 39 421q13 74 23 74h32v-6l-9 -201v-217q0 -403 -120 -483q-40 -29 -78 -29h-39q-172 0 -272 502q-73 330 -123 395l-29 20h-7q-32 -16 -48 -152h-30l-6 6v71 q0 136 84 136z" glyph-name="v" horiz-adv-x="845" unicode="v"/><glyph d="M237 929q74 0 97 -77l6 -46v-42q-3 -48 -16 -52h-29l-7 7v16l10 42q-20 97 -61 97q-52 -17 -69 -55q-84 -200 -84 -473q0 -293 110 -362l10 -3q59 10 130 67q73 88 110 172q58 140 58 214q17 29 49 29h6q55 -3 55 -36l-3 -146q0 -123 68 -200l42 -17q66 6 149 81 q102 122 153 370q29 184 29 278l3 4h32l7 -7v-16q0 -620 -256 -768q-64 -29 -107 -29h-32q-108 0 -156 126h-6q-131 -233 -318 -233h-19q-141 0 -185 217q-13 70 -13 143v87q0 267 100 522q45 90 137 90z" glyph-name="w" horiz-adv-x="1163" unicode="w"/><glyph d="M211 982q87 0 110 -78q6 -15 6 -42v-33q0 -44 -22 -58h-30l-6 7v26q10 12 10 25h3q-20 88 -65 88q-126 -35 -126 -104q0 -65 123 -155q78 -53 210 -107q68 41 205 91q103 52 142 165q16 53 26 136h32l7 -7v-103q0 -221 -246 -331l-17 -13q197 -81 260 -220q19 -43 19 -81 v-58q0 -77 -55 -130h-26l-6 6v30q32 49 32 94v9q0 128 -201 230q-88 33 -139 42q-116 -72 -266 -226q-99 -112 -104 -179l-3 -3h-29l-6 7v39q0 135 262 405v3q-210 88 -288 243q-23 40 -23 104v6q0 119 136 162q32 10 75 10z" glyph-name="x" horiz-adv-x="905" unicode="x"/><glyph d="M735 853h26q55 0 55 -85q-35 -530 -123 -1000q-9 -79 -86 -340q-102 -150 -217 -150h-52q-127 0 -285 146v26l6 7h23q10 0 84 -55q76 -53 181 -72q103 0 188 130q73 240 81 347q38 229 64 599v12h-3q-251 -553 -460 -553q-78 0 -100 74q-17 49 -17 130q0 88 49 544v42 q0 104 -65 123q-45 -47 -45 -155l-3 -4h-30l-6 7v55q0 125 65 149h26q116 0 116 -185v-65l-26 -463q0 -116 36 -158q109 40 246 294q98 189 234 577q23 23 38 23z" glyph-name="y" horiz-adv-x="855" unicode="y"/><glyph d="M237 923l6 -6v-26q-90 -49 -129 -87l-20 -23q0 -13 81 -13h30q238 0 609 146h45q15 -8 23 -23v-42q-34 -152 -263 -418q-205 -200 -363 -292l-84 -48q118 -16 276 -23q264 0 405 104h29l6 -7v-29q-148 -136 -534 -136q-252 0 -373 39q-13 17 -13 29v26q0 28 94 62 q131 61 356 265q268 268 308 353h-3q-260 -71 -476 -71q-204 0 -204 36q-10 2 -10 26v16q0 74 178 142h26z" glyph-name="z" horiz-adv-x="952" unicode="z"/><glyph d="M255 2035h25q64 0 110 -181v-28l-5 -9h-18l-34 82q-38 67 -55 67h-4q-29 0 -55 -99q-14 -71 -14 -223v-185q0 -562 -71 -659l-2 -4v-4q30 -74 48 -223q21 -165 44 -633q13 -165 38 -165q9 -12 23 -12q35 0 80 111q12 49 16 49h18l4 -8v-29q0 -77 -68 -168 q-22 -26 -50 -26h-19q-46 0 -68 71q-26 136 -66 605q-28 233 -59 312q-20 54 -53 54q-20 19 -20 57v29q0 56 53 75q30 28 51 119q37 211 37 407q16 499 46 536q37 82 68 82z" glyph-name="braceleft" horiz-adv-x="538" unicode="{"/><glyph d="M269 1989l3 -471q-20 -814 -20 -1344q0 -188 -19 -188q-12 0 -31 73q-50 189 -50 1396v72q0 368 117 462z" glyph-name="bar" horiz-adv-x="385" unicode="|"/><glyph d="M370 1953q30 -37 46 -536q0 -196 37 -407q21 -91 52 -119q52 -19 52 -75v-29q0 -38 -20 -57q-32 0 -53 -54q-30 -79 -59 -312q-39 -469 -66 -605q-22 -71 -68 -71h-19q-27 0 -50 26q-68 91 -68 168v29l5 8h18q4 0 16 -49q44 -111 79 -111q15 0 23 12q25 0 39 165 q23 468 44 633q17 149 47 223v4l-2 4q-71 97 -71 659v185q0 152 -13 223q-27 99 -55 99h-4q-17 0 -56 -67l-34 -82h-17l-5 9v28q45 181 109 181h25q31 0 68 -82z" glyph-name="braceright" horiz-adv-x="633" unicode="}"/><glyph glyph-name="asciitilde" horiz-adv-x="968" unicode="~"/><glyph glyph-name="exclamdown" horiz-adv-x="553" unicode="¡"/><glyph glyph-name="cent" unicode="¢"/><glyph glyph-name="sterling" unicode="£"/><glyph glyph-name="currency" unicode="¤"/><glyph glyph-name="yen" unicode="¥"/><glyph glyph-name="brokenbar" horiz-adv-x="431" unicode="¦"/><glyph glyph-name="section" unicode="§"/><glyph glyph-name="dieresis" horiz-adv-x="553" unicode="¨"/><glyph glyph-name="copyright" horiz-adv-x="1222" unicode="©"/><glyph glyph-name="ordfeminine" horiz-adv-x="614" unicode="ª"/><glyph glyph-name="guillemotleft" unicode="«"/><glyph glyph-name="logicalnot" horiz-adv-x="968" unicode="¬"/><glyph glyph-name="registered" horiz-adv-x="1222" unicode="®"/><glyph glyph-name="macron" horiz-adv-x="916" unicode="¯"/><glyph glyph-name="degree" horiz-adv-x="663" unicode="°"/><glyph glyph-name="plusminus" horiz-adv-x="911" unicode="±"/><glyph glyph-name="uni00B2" horiz-adv-x="553" unicode="²"/><glyph glyph-name="uni00B3" horiz-adv-x="553" unicode="³"/><glyph glyph-name="acute" horiz-adv-x="553" unicode="´"/><glyph glyph-name="mu" horiz-adv-x="956" unicode="µ"/><glyph glyph-name="paragraph" horiz-adv-x="891" unicode="¶"/><glyph glyph-name="periodcentered" horiz-adv-x="461" unicode="·"/><glyph glyph-name="periodcentered" horiz-adv-x="461" unicode="∙"/><glyph glyph-name="cedilla" horiz-adv-x="553" unicode="¸"/><glyph glyph-name="uni00B9" horiz-adv-x="553" unicode="¹"/><glyph glyph-name="ordmasculine" horiz-adv-x="606" unicode="º"/><glyph glyph-name="guillemotright" unicode="»"/><glyph glyph-name="onequarter" horiz-adv-x="1383" unicode="¼"/><glyph glyph-name="onehalf" horiz-adv-x="1383" unicode="½"/><glyph glyph-name="threequarters" horiz-adv-x="1383" unicode="¾"/><glyph glyph-name="questiondown" horiz-adv-x="1013" unicode="¿"/><glyph glyph-name="Agrave" horiz-adv-x="1106" unicode="À"/><glyph glyph-name="Aacute" horiz-adv-x="1106" unicode="Á"/><glyph glyph-name="Acircumflex" horiz-adv-x="1106" unicode="Â"/><glyph glyph-name="Atilde" horiz-adv-x="1106" unicode="Ã"/><glyph glyph-name="Adieresis" horiz-adv-x="1106" unicode="Ä"/><glyph glyph-name="Aring" horiz-adv-x="1106" unicode="Å"/><glyph glyph-name="AE" horiz-adv-x="1659" unicode="Æ"/><glyph glyph-name="Ccedilla" horiz-adv-x="1198" unicode="Ç"/><glyph glyph-name="Egrave" horiz-adv-x="1106" unicode="È"/><glyph glyph-name="Eacute" horiz-adv-x="1106" unicode="É"/><glyph glyph-name="Ecircumflex" horiz-adv-x="1106" unicode="Ê"/><glyph glyph-name="Edieresis" horiz-adv-x="1106" unicode="Ë"/><glyph glyph-name="Igrave" horiz-adv-x="461" unicode="Ì"/><glyph glyph-name="Iacute" horiz-adv-x="461" unicode="Í"/><glyph glyph-name="Icircumflex" horiz-adv-x="461" unicode="Î"/><glyph glyph-name="Idieresis" horiz-adv-x="461" unicode="Ï"/><glyph glyph-name="Eth" horiz-adv-x="1198" unicode="Ð"/><glyph glyph-name="Ntilde" horiz-adv-x="1198" unicode="Ñ"/><glyph glyph-name="Ograve" horiz-adv-x="1291" unicode="Ò"/><glyph d="M1092 2368q146 0 201 -149l3 -32v-36q0 -132 -172 -188q-350 -61 -411 -61h-26l-7 6v26q6 8 117 39l279 101q116 66 116 116q0 61 -90 110l-36 10l-65 -19h-29v32q39 45 120 45zM859 1853h48q235 0 340 -204q26 -57 26 -123v-19q0 -122 -100 -224q-39 -74 -39 -146 q0 -112 126 -486l13 -139q0 -347 -418 -486q-110 -26 -204 -26h-3q-447 0 -593 460q-55 182 -55 421q0 658 583 911q160 61 276 61zM113 813q0 -436 243 -638q136 -100 305 -100h16q237 0 431 171q120 133 120 279v26q0 64 -100 327q-56 150 -56 285q0 139 88 230 q39 67 39 117q0 101 -117 197q-97 56 -185 56q-160 0 -405 -149q-379 -273 -379 -801z" glyph-name="Oacute" horiz-adv-x="1364" unicode="Ó"/><glyph glyph-name="Ocircumflex" horiz-adv-x="1291" unicode="Ô"/><glyph glyph-name="Otilde" horiz-adv-x="1291" unicode="Õ"/><glyph glyph-name="Odieresis" horiz-adv-x="1291" unicode="Ö"/><glyph glyph-name="multiply" horiz-adv-x="968" unicode="×"/><glyph glyph-name="Oslash" horiz-adv-x="1291" unicode="Ø"/><glyph glyph-name="Ugrave" horiz-adv-x="1198" unicode="Ù"/><glyph glyph-name="Uacute" horiz-adv-x="1198" unicode="Ú"/><glyph glyph-name="Ucircumflex" horiz-adv-x="1198" unicode="Û"/><glyph glyph-name="Udieresis" horiz-adv-x="1198" unicode="Ü"/><glyph glyph-name="Yacute" horiz-adv-x="1106" unicode="Ý"/><glyph glyph-name="Thorn" horiz-adv-x="1106" unicode="Þ"/><glyph glyph-name="germandbls" horiz-adv-x="1013" unicode="ß"/><glyph glyph-name="agrave" unicode="à"/><glyph glyph-name="aacute" unicode="á"/><glyph glyph-name="acircumflex" unicode="â"/><glyph glyph-name="atilde" unicode="ã"/><glyph glyph-name="adieresis" unicode="ä"/><glyph glyph-name="aring" unicode="å"/><glyph glyph-name="ae" horiz-adv-x="1475" unicode="æ"/><glyph glyph-name="ccedilla" horiz-adv-x="830" unicode="ç"/><glyph glyph-name="egrave" unicode="è"/><glyph glyph-name="eacute" unicode="é"/><glyph glyph-name="ecircumflex" unicode="ê"/><glyph glyph-name="edieresis" unicode="ë"/><glyph glyph-name="igrave" horiz-adv-x="461" unicode="ì"/><glyph glyph-name="iacute" horiz-adv-x="461" unicode="í"/><glyph glyph-name="icircumflex" horiz-adv-x="461" unicode="î"/><glyph glyph-name="idieresis" horiz-adv-x="461" unicode="ï"/><glyph glyph-name="eth" unicode="ð"/><glyph glyph-name="ntilde" unicode="ñ"/><glyph glyph-name="ograve" unicode="ò"/><glyph d="M512 1199h3q66 0 88 -26v-29q-6 -8 -55 -23q-32 -40 -104 -97q-20 -39 -26 -39h-29q-10 0 -10 36v51q0 127 133 127zM463 940q119 0 237 -140q87 -125 87 -298q0 -314 -249 -463q-91 -39 -162 -39h-36q-214 0 -317 230q-23 81 -23 133v61q0 212 159 415q42 46 58 46h20 q6 0 6 -33q79 88 220 88zM249 687l4 -78l-4 -3h-35q-10 37 -10 78v39q0 67 33 116h-4q-99 -87 -152 -324l-10 -81q0 -169 130 -278q74 -46 133 -46h9q156 0 289 220q52 108 52 208q0 189 -162 304q-57 26 -75 26h-10q-128 0 -178 -123z" glyph-name="oacute" horiz-adv-x="861" unicode="ó"/><glyph glyph-name="ocircumflex" unicode="ô"/><glyph glyph-name="otilde" unicode="õ"/><glyph glyph-name="odieresis" unicode="ö"/><glyph glyph-name="divide" horiz-adv-x="911" unicode="÷"/><glyph glyph-name="oslash" horiz-adv-x="1013" unicode="ø"/><glyph glyph-name="ugrave" unicode="ù"/><glyph glyph-name="uacute" unicode="ú"/><glyph glyph-name="ucircumflex" unicode="û"/><glyph glyph-name="udieresis" unicode="ü"/><glyph glyph-name="yacute" horiz-adv-x="830" unicode="ý"/><glyph glyph-name="thorn" unicode="þ"/><glyph glyph-name="ydieresis" horiz-adv-x="830" unicode="ÿ"/><glyph glyph-name="Amacron" horiz-adv-x="1106" unicode="Ā"/><glyph glyph-name="amacron" unicode="ā"/><glyph glyph-name="Abreve" horiz-adv-x="1106" unicode="Ă"/><glyph glyph-name="abreve" unicode="ă"/><glyph d="M1024 2207q125 0 172 -149q90 -298 90 -998v-81q223 74 541 191h23l7 -6v-26q0 -13 -357 -143l-210 -74q0 -487 -52 -1050q-17 -26 -42 -26h-33q-45 0 -45 130q-58 289 -208 469q-123 145 -236 224l-45 29q-171 -49 -179 -58q-178 -730 -304 -1085q-142 -328 -324 -328 h-32q-128 0 -182 159q-8 33 -13 88q0 124 49 217h29l7 -7v-19q-39 -118 -39 -175q0 -138 116 -201l46 -13q90 0 201 143q93 120 242 715l117 486q-230 -65 -330 -65h-71q-211 0 -331 130q-19 32 -19 62v38q0 98 236 153q102 19 185 19h84q148 0 317 -55q227 949 421 1209 q75 97 169 97zM518 872l172 -84q188 55 473 149l3 165q0 733 -87 946q-28 52 -58 52q-62 0 -172 -214q-169 -362 -334 -1014h3zM-307 755q17 -49 123 -94q99 -35 191 -35q107 0 375 74l26 104q-193 68 -349 68q-199 0 -340 -78q-26 -25 -26 -39zM761 739v-3 q264 -186 383 -457h3l16 593h-3zM486 768l-13 -45l71 19q-32 26 -58 26zM1059 -132q77 0 127 -55v-29l-7 -7h-29q-41 29 -68 29h-13q-69 0 -116 -90l-7 -26q0 -69 220 -162q245 -135 386 -198l3 -3v-29l-6 -7h-16q-49 0 -470 149q-72 9 -156 85q-58 68 -58 126v39 q0 125 155 175z" glyph-name="Aogonek" horiz-adv-x="1535" unicode="Ą"/><glyph d="M460 926h52q119 0 240 -142q97 -154 97 -282q10 -38 10 -178l-4 -85q105 -111 123 -165v-19l-6 -7h-29l-94 104l-26 -175h19q52 0 52 -9v-26q0 -10 -42 -10h-42q-28 -104 -42 -104h-26l-7 7v13l17 84h-52q-563 0 -687 213q-13 39 -13 59v45q0 129 211 207q89 30 171 30 q191 0 376 -149q0 80 -87 350q-56 115 -162 155l-39 10q-91 0 -156 -185h-35v26q0 107 94 201q45 32 87 32zM120 217q0 -68 181 -143q125 -48 302 -74l158 -16l10 165l-6 81q-198 155 -347 155q-111 0 -243 -91q-55 -53 -55 -77zM625 -84h20q61 0 97 -114v-42 q0 -62 -110 -120h-29l-7 7v23q26 61 26 139q10 19 10 36l-13 32v32z" glyph-name="aogonek" horiz-adv-x="1007" unicode="ą"/><glyph d="M1095 2368q146 0 201 -149l3 -32v-36q0 -132 -171 -188q-351 -61 -412 -61h-26l-6 6v26q5 8 116 39l269 97q127 65 127 120q0 61 -91 110l-36 10l-68 -19h-26v32q39 45 120 45zM859 1850h48q246 0 347 -217q19 -54 19 -117q0 -191 -181 -272l-39 -6h-52q-102 0 -162 142 l-6 62v10q2 72 19 74h26l7 -6v-13q0 -23 -10 -52q0 -54 65 -130q51 -33 84 -35q60 0 139 97q42 66 42 120q0 113 -120 204q-94 55 -184 55q-146 0 -383 -133q-91 -51 -213 -198q-185 -250 -185 -606v-22q0 -438 246 -635q134 -97 308 -97q246 0 444 178q113 131 113 275v62 l7 6h26q9 -3 9 -19l4 -65q0 -324 -363 -467q-118 -45 -237 -45h-58q-333 0 -506 321q-113 227 -113 554q0 413 237 670q155 160 268 205q203 100 354 100z" glyph-name="Cacute" horiz-adv-x="1341" unicode="Ć"/><glyph d="M544 1212h4q64 0 87 -26v-29q-6 -8 -55 -23q-32 -40 -104 -97q-19 -39 -26 -39h-29q-10 0 -10 36v51q13 120 81 120q14 7 52 7zM460 991h32q112 0 153 -113l3 -32v-36q-10 -78 -49 -78h-19l-7 7v29q26 27 26 45v10q0 76 -110 104q-76 0 -181 -85q-185 -235 -185 -534 q0 -150 120 -204q53 -20 94 -20q185 0 311 130q52 65 52 123h32l7 -7v-35q0 -143 -195 -243q-109 -52 -220 -52h-42q-240 0 -279 292l-3 71v13q0 174 139 411q131 204 321 204z" glyph-name="cacute" horiz-adv-x="794" unicode="ć"/><glyph glyph-name="Ccircumflex" horiz-adv-x="1198" unicode="Ĉ"/><glyph glyph-name="ccircumflex" horiz-adv-x="830" unicode="ĉ"/><glyph glyph-name="Cdotaccent" horiz-adv-x="1198" unicode="Ċ"/><glyph glyph-name="cdotaccent" horiz-adv-x="830" unicode="ċ"/><glyph glyph-name="Ccaron" horiz-adv-x="1198" unicode="Č"/><glyph glyph-name="ccaron" horiz-adv-x="830" unicode="č"/><glyph glyph-name="Dcaron" horiz-adv-x="1198" unicode="Ď"/><glyph glyph-name="dcaron" horiz-adv-x="1020" unicode="ď"/><glyph glyph-name="Dcroat" horiz-adv-x="1198" unicode="Đ"/><glyph glyph-name="dcroat" unicode="đ"/><glyph glyph-name="Emacron" horiz-adv-x="1106" unicode="Ē"/><glyph glyph-name="emacron" unicode="ē"/><glyph glyph-name="Ebreve" horiz-adv-x="1106" unicode="Ĕ"/><glyph glyph-name="ebreve" unicode="ĕ"/><glyph glyph-name="Edotaccent" horiz-adv-x="1106" unicode="Ė"/><glyph glyph-name="edotaccent" unicode="ė"/><glyph d="M680 1702h65q204 0 434 -162q68 -50 107 -94v-26l-6 -6h-23q-13 0 -78 58q-244 169 -444 169q-162 0 -311 -104q-90 -82 -90 -165q0 -101 139 -195q117 -55 227 -55h94q39 -9 39 -35v-46q-12 -32 -68 -32q-175 -33 -289 -75q-369 -147 -369 -453v-23q0 -215 130 -366 q149 -145 372 -145q271 0 512 194q92 89 126 155h36v-29q-93 -211 -382 -333q-153 -59 -302 -59h-38q-372 0 -516 337q-45 146 -45 272v23q0 384 411 541l49 16v3q-214 100 -214 302q0 260 373 330zM995 -73q76 0 126 -55v-29l-6 -7h-30q-41 30 -68 30h-13q-69 0 -116 -91 l-7 -26q0 -70 234 -168q245 -137 375 -192v-32l-6 -7h-16q-49 0 -470 150q-71 8 -159 87q-55 67 -55 123v39q0 125 156 175z" glyph-name="Eogonek" horiz-adv-x="1341" unicode="Ę"/><glyph d="M593 904h29q142 0 169 -106l3 -26v-39q0 -148 -211 -328q-172 -119 -372 -119h-36l-7 6v26l10 10h7q180 0 366 152q152 156 152 266q0 37 -45 52l-36 6q-106 -5 -269 -139q-189 -187 -217 -279q-32 -77 -36 -130q0 -92 127 -194q86 -52 188 -52q153 0 278 104 q55 50 55 74l4 4h29l6 -7v-23q0 -85 -214 -193q-92 -26 -168 -26h-49q-240 0 -343 236q-13 49 -13 94q0 238 249 479q197 152 344 152zM596 -54h20q64 0 97 -117v-39q0 -62 -110 -120h-30l-6 7v23q26 60 26 142q10 12 10 33l-13 32v32z" glyph-name="eogonek" horiz-adv-x="839" unicode="ę"/><glyph glyph-name="Ecaron" horiz-adv-x="1106" unicode="Ě"/><glyph glyph-name="ecaron" unicode="ě"/><glyph glyph-name="Gcircumflex" horiz-adv-x="1291" unicode="Ĝ"/><glyph glyph-name="gcircumflex" unicode="ĝ"/><glyph glyph-name="Gbreve" horiz-adv-x="1291" unicode="Ğ"/><glyph glyph-name="gbreve" unicode="ğ"/><glyph glyph-name="Gdotaccent" horiz-adv-x="1291" unicode="Ġ"/><glyph glyph-name="gdotaccent" unicode="ġ"/><glyph glyph-name="Gcommaaccent" horiz-adv-x="1291" unicode="Ģ"/><glyph glyph-name="gcommaaccent" unicode="ģ"/><glyph glyph-name="Hcircumflex" horiz-adv-x="1198" unicode="Ĥ"/><glyph glyph-name="hcircumflex" unicode="ĥ"/><glyph glyph-name="Hbar" horiz-adv-x="1198" unicode="Ħ"/><glyph glyph-name="hbar" unicode="ħ"/><glyph glyph-name="Itilde" horiz-adv-x="461" unicode="Ĩ"/><glyph glyph-name="itilde" horiz-adv-x="461" unicode="ĩ"/><glyph glyph-name="Imacron" horiz-adv-x="461" unicode="Ī"/><glyph glyph-name="imacron" horiz-adv-x="461" unicode="ī"/><glyph glyph-name="Ibreve" horiz-adv-x="461" unicode="Ĭ"/><glyph glyph-name="ibreve" horiz-adv-x="461" unicode="ĭ"/><glyph glyph-name="Iogonek" horiz-adv-x="461" unicode="Į"/><glyph glyph-name="iogonek" horiz-adv-x="369" unicode="į"/><glyph glyph-name="Idotaccent" horiz-adv-x="461" unicode="İ"/><glyph glyph-name="dotlessi" horiz-adv-x="461" unicode="ı"/><glyph glyph-name="IJ" horiz-adv-x="1220" unicode="Ĳ"/><glyph glyph-name="ij" horiz-adv-x="736" unicode="ĳ"/><glyph glyph-name="Jcircumflex" horiz-adv-x="830" unicode="Ĵ"/><glyph glyph-name="jcircumflex" horiz-adv-x="369" unicode="ĵ"/><glyph glyph-name="Kcommaaccent" horiz-adv-x="1106" unicode="Ķ"/><glyph glyph-name="kcommaaccent" horiz-adv-x="830" unicode="ķ"/><glyph glyph-name="kgreenlandic" horiz-adv-x="830" unicode="ĸ"/><glyph glyph-name="Lacute" unicode="Ĺ"/><glyph glyph-name="lacute" horiz-adv-x="369" unicode="ĺ"/><glyph glyph-name="Lcommaaccent" unicode="Ļ"/><glyph glyph-name="lcommaaccent" horiz-adv-x="369" unicode="ļ"/><glyph glyph-name="Lcaron" unicode="Ľ"/><glyph glyph-name="lcaron" horiz-adv-x="483" unicode="ľ"/><glyph glyph-name="Ldot" unicode="Ŀ"/><glyph glyph-name="ldot" horiz-adv-x="554" unicode="ŀ"/><glyph d="M424 1877h20l152 -55h3q4 10 20 10h32q65 -19 65 -49v-26l-13 -13h-36q-22 0 -35 7q-97 -221 -97 -606v-227q64 0 372 110q157 84 227 227q25 70 32 71h26l7 -6v-13q0 -131 -130 -285q-137 -128 -246 -162q-116 -36 -285 -36h-3v-65q0 -312 -39 -509h3q126 -3 557 -162 q170 -51 256 -51q105 0 120 64q-19 68 -107 130l-19 16v29l6 7h20q81 -33 142 -130l10 -48v-20q0 -106 -198 -106q-175 0 -538 126q-146 39 -278 55q-33 -131 -110 -191q-75 -49 -133 -49h-29q-125 0 -185 117q-13 22 -13 58v29q0 112 168 136l133 3h68q68 265 68 561l-19 3 q-211 13 -243 36v26l6 6h88q106 0 172 10q0 247 42 580q34 170 81 275l3 4l3 9h-3q-147 62 -149 72v25zM113 108q0 -23 62 -62l26 -6q63 0 133 117v6h-4q-157 0 -207 -36z" glyph-name="Lslash" horiz-adv-x="1493" unicode="Ł"/><glyph d="M321 1597h22q46 0 46 -74v-94q0 -314 -104 -570l-3 -23q41 23 87 97l107 123q55 76 65 81h26l6 -6v-20q0 -63 -93 -252q-96 -94 -175 -94h-33q-26 -200 -26 -341v-64q7 -242 84 -295h4q63 14 129 139q35 69 39 126h29l10 -9v-26q0 -127 -123 -263q-40 -32 -68 -32h-36 q-125 0 -155 382l-3 107v178l3 4v3h-3q-87 -84 -130 -91h-20l-6 7v29q165 120 165 191q0 158 65 515q55 266 68 266z" glyph-name="lslash" horiz-adv-x="649" unicode="ł"/><glyph d="M1116 2202q145 0 198 -142l7 -45v-30q0 -132 -172 -188q-351 -61 -412 -61h-26l-6 6v26q6 8 117 39l269 97q126 65 126 120q0 61 -91 110l-35 10l-65 -19h-29v32q38 45 119 45zM540 2118h26l6 -6v-29q-104 -89 -159 -318l-19 -126q447 -661 674 -1060h3q23 264 78 545 q71 302 152 466q114 204 227 204h19l7 -6v-26q0 -5 -58 -26q-115 -85 -166 -243q-39 -75 -94 -327q-74 -411 -74 -749q133 -270 133 -337l3 -39v-32q-9 -103 -84 -103h-39q-114 0 -114 343v74q-121 277 -434 794l-243 405h-3q-10 -102 -13 -301l19 -687v-36 q0 -705 -123 -861q-81 -127 -207 -127h-3q-195 0 -236 263l-4 52q0 103 17 110h26l6 -7v-3l-3 -74q0 -158 123 -253q46 -19 68 -19q55 0 129 87q91 128 91 508l-10 379q0 696 55 1079q-115 149 -191 149q-36 0 -71 -42v-39h-32l-13 13v42q0 49 97 75h29q98 0 201 -114 q59 272 168 373z" glyph-name="Nacute" horiz-adv-x="1455" unicode="Ń"/><glyph d="M428 1169h3q66 0 87 -26v-29q0 -8 -48 -20q-45 -48 -107 -97q-22 -39 -29 -42h-29q-10 0 -10 36v51q0 127 133 127zM42 978h33q15 0 42 -506v-29q4 0 42 97q183 389 317 389h23q188 0 188 -441q0 -222 -39 -486h-32l-7 7l13 321q0 402 -110 495l-16 4h-7 q-65 -45 -110 -136q-71 -121 -233 -542q-26 -57 -39 -145q-18 -36 -42 -36h-29q-31 0 -36 45v4q0 30 36 184q9 140 9 295v107z" glyph-name="nacute" horiz-adv-x="750" unicode="ń"/><glyph glyph-name="Ncommaaccent" horiz-adv-x="1198" unicode="Ņ"/><glyph glyph-name="ncommaaccent" unicode="ņ"/><glyph glyph-name="Ncaron" horiz-adv-x="1198" unicode="Ň"/><glyph glyph-name="ncaron" unicode="ň"/><glyph glyph-name="napostrophe" horiz-adv-x="1002" unicode="ŉ"/><glyph glyph-name="Eng" horiz-adv-x="1200" unicode="Ŋ"/><glyph glyph-name="eng" unicode="ŋ"/><glyph glyph-name="Omacron" horiz-adv-x="1291" unicode="Ō"/><glyph glyph-name="omacron" unicode="ō"/><glyph glyph-name="Obreve" horiz-adv-x="1291" unicode="Ŏ"/><glyph glyph-name="obreve" unicode="ŏ"/><glyph glyph-name="Ohungarumlaut" horiz-adv-x="1291" unicode="Ő"/><glyph glyph-name="ohungarumlaut" unicode="ő"/><glyph glyph-name="OE" horiz-adv-x="1659" unicode="Œ"/><glyph glyph-name="oe" horiz-adv-x="1566" unicode="œ"/><glyph glyph-name="Racute" horiz-adv-x="1198" unicode="Ŕ"/><glyph glyph-name="racute" horiz-adv-x="553" unicode="ŕ"/><glyph glyph-name="Rcommaaccent" horiz-adv-x="1198" unicode="Ŗ"/><glyph glyph-name="rcommaaccent" horiz-adv-x="553" unicode="ŗ"/><glyph glyph-name="Rcaron" horiz-adv-x="1198" unicode="Ř"/><glyph glyph-name="rcaron" horiz-adv-x="553" unicode="ř"/><glyph d="M1419 2368q146 0 201 -149l3 -32v-36q0 -132 -171 -188q-351 -61 -412 -61h-26l-6 6v26q5 8 116 39l269 97q127 65 127 120q0 61 -91 110l-36 10l-65 -19h-29v32q39 45 120 45zM862 1863h29q386 0 700 -324l3 -3v-29l-6 -7h-30q-311 298 -657 298q-319 0 -431 -249 q-23 -68 -23 -107q0 -123 130 -243q134 -123 389 -123h174q351 0 474 -328q19 -55 19 -113v-36q0 -232 -237 -421q-243 -178 -531 -178h-55q-386 0 -726 321q-143 149 -262 149q-100 -19 -100 -84q0 -39 58 -98v-26l-6 -6h-29q-69 55 -69 113v39q0 97 137 114h45 q132 0 317 -185q313 -253 635 -253q282 0 525 191q117 108 149 198q23 41 32 130q0 147 -181 298q-96 65 -357 65q-367 0 -524 210q-94 106 -94 259q0 237 226 370q108 58 276 58z" glyph-name="Sacute" horiz-adv-x="1737" unicode="Ś"/><glyph d="M463 1160h4q65 0 87 -26v-29q-6 -7 -55 -23q-32 -40 -104 -97q-19 -39 -26 -39h-29q-10 0 -10 36v52q0 126 133 126zM366 894h58q78 -4 78 -16v-26q0 -6 -10 -6l-81 3q-71 0 -165 -65q-94 -84 -94 -146q0 -37 110 -52q85 13 250 56l42 3h52q131 0 188 -172v-55 q0 -181 -240 -343q-126 -75 -279 -75q-147 0 -275 91v29l6 6h23q127 -61 214 -61h13q192 0 356 197q58 80 68 153q0 53 -84 103l-39 7l-256 -36h-16q-128 0 -198 68q-16 29 -16 46v42q0 125 178 223q66 26 117 26z" glyph-name="sacute" horiz-adv-x="850" unicode="ś"/><glyph glyph-name="Scircumflex" horiz-adv-x="1106" unicode="Ŝ"/><glyph glyph-name="scircumflex" horiz-adv-x="830" unicode="ŝ"/><glyph glyph-name="Scedilla" horiz-adv-x="1106" unicode="Ş"/><glyph glyph-name="scedilla" horiz-adv-x="830" unicode="ş"/><glyph glyph-name="Scaron" horiz-adv-x="1106" unicode="Š"/><glyph glyph-name="scaron" horiz-adv-x="830" unicode="š"/><glyph glyph-name="Tcommaaccent" horiz-adv-x="1013" unicode="Ţ"/><glyph glyph-name="tcommaaccent" horiz-adv-x="461" unicode="ţ"/><glyph glyph-name="Tcaron" horiz-adv-x="1013" unicode="Ť"/><glyph glyph-name="tcaron" horiz-adv-x="622" unicode="ť"/><glyph glyph-name="Tbar" horiz-adv-x="1013" unicode="Ŧ"/><glyph glyph-name="tbar" horiz-adv-x="461" unicode="ŧ"/><glyph glyph-name="Utilde" horiz-adv-x="1198" unicode="Ũ"/><glyph glyph-name="utilde" unicode="ũ"/><glyph glyph-name="Umacron" horiz-adv-x="1198" unicode="Ū"/><glyph glyph-name="umacron" unicode="ū"/><glyph glyph-name="Ubreve" horiz-adv-x="1198" unicode="Ŭ"/><glyph glyph-name="ubreve" unicode="ŭ"/><glyph glyph-name="Uring" horiz-adv-x="1198" unicode="Ů"/><glyph glyph-name="uring" unicode="ů"/><glyph glyph-name="Uhungarumlaut" horiz-adv-x="1198" unicode="Ű"/><glyph glyph-name="uhungarumlaut" unicode="ű"/><glyph glyph-name="Uogonek" horiz-adv-x="1198" unicode="Ų"/><glyph glyph-name="uogonek" unicode="ų"/><glyph glyph-name="Wcircumflex" horiz-adv-x="1566" unicode="Ŵ"/><glyph glyph-name="wcircumflex" horiz-adv-x="1198" unicode="ŵ"/><glyph glyph-name="Ycircumflex" horiz-adv-x="1106" unicode="Ŷ"/><glyph glyph-name="ycircumflex" horiz-adv-x="830" unicode="ŷ"/><glyph glyph-name="Ydieresis" horiz-adv-x="1106" unicode="Ÿ"/><glyph d="M1295 2227q152 0 201 -155l3 -26v-36q0 -120 -142 -178q-51 -19 -422 -71h-45l-6 6v26q0 10 58 20l321 113q133 69 133 120v3q0 61 -91 110l-36 10l-65 -19h-29v32q39 45 120 45zM307 1651q265 0 690 -192l123 -45q108 169 243 169h36q197 0 262 -111l3 -19v-42 q0 -90 -233 -126l-68 -4q-81 0 -178 23q-163 -271 -418 -781l-217 -360h3q1223 -524 1630 -524h16q90 0 172 39h22l7 -7v-25q-64 -56 -227 -56q-458 0 -1685 496q-112 -162 -246 -162h-39q-143 0 -203 162l-4 29v52q0 88 100 123l62 6q89 0 272 -81q137 217 486 869l156 259 l-438 178q-212 71 -343 71q-119 0 -263 -52l-32 -25q27 -56 201 -117q73 -20 81 -29v-26l-7 -7h-19q-171 33 -278 111q-30 30 -30 48v33q0 97 353 123h10zM1240 1382q37 -10 110 -16q100 0 211 58l3 3v3q-55 52 -152 52h-10q-92 0 -136 -68zM96 144q0 -44 68 -97l55 -16 q70 0 149 103q-164 62 -200 62h-10q-62 -11 -62 -52z" glyph-name="Zacute" horiz-adv-x="1467" unicode="Ź"/><glyph d="M603 1192h3q66 0 88 -26v-29q-6 -7 -56 -22q-31 -41 -103 -98q-20 -39 -26 -39h-29q-10 0 -10 36v52q0 126 133 126zM253 923l6 -6v-26q-90 -49 -129 -87l-20 -23q0 -13 81 -13h30q238 0 609 146h45q15 -8 23 -23v-42q-39 -161 -263 -418q-209 -204 -327 -266l-120 -74 q114 -16 276 -23q264 0 405 104h29l6 -7v-29q-149 -136 -534 -136q-252 0 -373 39q-13 17 -13 29v26q0 28 94 62q133 62 366 275q255 256 298 343h-3q-262 -71 -473 -71q-207 0 -207 36q-10 2 -10 26v16q0 74 178 142h26z" glyph-name="zacute" horiz-adv-x="962" unicode="ź"/><glyph d="M859 1942h130q165 -17 165 -113v-20q0 -109 -181 -149l-46 -3q-142 0 -214 101q-13 22 -13 58q0 80 88 113q43 13 71 13zM788 1826q40 -43 107 -43h58q80 0 114 43q-13 32 -75 58l-65 16q-63 0 -136 -65zM315 1651q265 0 690 -192l123 -45q111 162 204 162q0 6 81 7 q189 0 256 -111l3 -19v-42q0 -90 -233 -126l-68 -4q-81 0 -178 23q-163 -271 -418 -781l-217 -360h3q1223 -524 1630 -524h26q77 0 162 39h22l7 -7v-25q-64 -56 -227 -56q-459 0 -1685 496q-112 -162 -246 -162h-32q-153 0 -210 162l-4 29v52q0 88 100 123l62 6 q89 0 272 -81q137 217 486 869l156 259q-95 35 -435 178q-219 71 -346 71q-119 0 -263 -52l-32 -25q27 -56 201 -117q73 -20 81 -29v-26l-7 -7h-19q-171 33 -278 111q-30 30 -30 48v33q0 97 353 123h10zM1248 1382q37 -10 110 -16q100 0 211 58l3 3v3q-55 52 -152 52h-10 q-92 0 -136 -68zM104 144q0 -44 68 -97l55 -16q70 0 149 103q-164 62 -200 62h-10q-62 -11 -62 -52z" glyph-name="Zdotaccent" horiz-adv-x="1461" unicode="Ż"/><glyph d="M253 923l6 -6v-26q-90 -49 -129 -87l-20 -23q0 -13 81 -13h30q238 0 609 146h45q15 -8 23 -23v-42q-39 -161 -263 -418q-205 -200 -363 -292l-84 -48q114 -16 276 -23q264 0 405 104h29l6 -7v-29q-149 -136 -534 -136q-252 0 -373 39q-13 17 -13 29v26q0 28 94 62 q131 64 324 236q274 267 305 331l35 51h-3q-260 -71 -476 -71q-214 0 -214 55v23q0 74 178 142h26zM561 1325h29q58 0 58 -68v-3q0 -78 -94 -117h-65q-75 0 -87 65v32q0 50 110 78q0 9 49 13zM535 1285q-26 -5 -43 -17.5t-15 -25.5q2 -14 22.5 -19.5t46.5 -1.5q27 5 44 17.5 t14 25.5q-2 13 -22 19.5t-47 1.5z" glyph-name="zdotaccent" horiz-adv-x="957" unicode="ż"/><glyph glyph-name="Zcaron" horiz-adv-x="1013" unicode="Ž"/><glyph glyph-name="zcaron" horiz-adv-x="830" unicode="ž"/><glyph glyph-name="longs" horiz-adv-x="369" unicode="ſ"/><glyph glyph-name="florin" unicode="ƒ"/><glyph glyph-name="Aringacute" horiz-adv-x="1106" unicode="Ǻ"/><glyph glyph-name="aringacute" unicode="ǻ"/><glyph glyph-name="AEacute" horiz-adv-x="1659" unicode="Ǽ"/><glyph glyph-name="aeacute" horiz-adv-x="1475" unicode="ǽ"/><glyph glyph-name="Oslashacute" horiz-adv-x="1291" unicode="Ǿ"/><glyph glyph-name="oslashacute" horiz-adv-x="1013" unicode="ǿ"/><glyph glyph-name="circumflex" horiz-adv-x="553" unicode="ˆ"/><glyph glyph-name="caron" horiz-adv-x="553" unicode="ˇ"/><glyph glyph-name="uni02C9" horiz-adv-x="553" unicode="ˉ"/><glyph glyph-name="breve" horiz-adv-x="553" unicode="˘"/><glyph glyph-name="dotaccent" horiz-adv-x="553" unicode="˙"/><glyph glyph-name="ring" horiz-adv-x="553" unicode="˚"/><glyph glyph-name="ogonek" horiz-adv-x="553" unicode="˛"/><glyph glyph-name="tilde" horiz-adv-x="553" unicode="˜"/><glyph glyph-name="hungarumlaut" horiz-adv-x="553" unicode="˝"/><glyph glyph-name="tonos" horiz-adv-x="553" unicode="΄"/><glyph glyph-name="dieresistonos" horiz-adv-x="553" unicode="΅"/><glyph glyph-name="Alphatonos" horiz-adv-x="1107" unicode="Ά"/><glyph glyph-name="anoteleia" horiz-adv-x="461" unicode="·"/><glyph glyph-name="Epsilontonos" horiz-adv-x="1301" unicode="Έ"/><glyph glyph-name="Etatonos" horiz-adv-x="1390" unicode="Ή"/><glyph glyph-name="Iotatonos" horiz-adv-x="636" unicode="Ί"/><glyph glyph-name="Omicrontonos" horiz-adv-x="1284" unicode="Ό"/><glyph glyph-name="Upsilontonos" horiz-adv-x="1419" unicode="Ύ"/><glyph glyph-name="Omegatonos" horiz-adv-x="1248" unicode="Ώ"/><glyph glyph-name="iotadieresistonos" horiz-adv-x="369" unicode="ΐ"/><glyph glyph-name="Alpha" horiz-adv-x="1106" unicode="Α"/><glyph glyph-name="Beta" horiz-adv-x="1106" unicode="Β"/><glyph glyph-name="Gamma" horiz-adv-x="914" unicode="Γ"/><glyph glyph-name="uni0394" horiz-adv-x="1108" unicode="Δ"/><glyph glyph-name="Epsilon" horiz-adv-x="1106" unicode="Ε"/><glyph glyph-name="Zeta" horiz-adv-x="1013" unicode="Ζ"/><glyph glyph-name="Eta" horiz-adv-x="1198" unicode="Η"/><glyph glyph-name="Theta" horiz-adv-x="1291" unicode="Θ"/><glyph glyph-name="Iota" horiz-adv-x="461" unicode="Ι"/><glyph glyph-name="Kappa" horiz-adv-x="1106" unicode="Κ"/><glyph glyph-name="Lambda" horiz-adv-x="1108" unicode="Λ"/><glyph glyph-name="Mu" horiz-adv-x="1382" unicode="Μ"/><glyph glyph-name="Nu" horiz-adv-x="1198" unicode="Ν"/><glyph glyph-name="Xi" horiz-adv-x="1078" unicode="Ξ"/><glyph glyph-name="Omicron" horiz-adv-x="1291" unicode="Ο"/><glyph glyph-name="Pi" horiz-adv-x="1198" unicode="Π"/><glyph glyph-name="Rho" horiz-adv-x="1106" unicode="Ρ"/><glyph glyph-name="Sigma" horiz-adv-x="1025" unicode="Σ"/><glyph glyph-name="Tau" horiz-adv-x="1013" unicode="Τ"/><glyph glyph-name="Upsilon" horiz-adv-x="1106" unicode="Υ"/><glyph glyph-name="Phi" horiz-adv-x="1324" unicode="Φ"/><glyph glyph-name="Chi" horiz-adv-x="1106" unicode="Χ"/><glyph glyph-name="Psi" horiz-adv-x="1386" unicode="Ψ"/><glyph glyph-name="uni03A9" horiz-adv-x="1240" unicode="Ω"/><glyph glyph-name="Iotadieresis" horiz-adv-x="461" unicode="Ϊ"/><glyph glyph-name="Upsilondieresis" horiz-adv-x="1106" unicode="Ϋ"/><glyph glyph-name="alphatonos" horiz-adv-x="959" unicode="ά"/><glyph glyph-name="epsilontonos" horiz-adv-x="740" unicode="έ"/><glyph glyph-name="etatonos" unicode="ή"/><glyph glyph-name="iotatonos" horiz-adv-x="369" unicode="ί"/><glyph glyph-name="upsilondieresistonos" horiz-adv-x="907" unicode="ΰ"/><glyph glyph-name="alpha" horiz-adv-x="959" unicode="α"/><glyph glyph-name="beta" horiz-adv-x="954" unicode="β"/><glyph glyph-name="gamma" horiz-adv-x="830" unicode="γ"/><glyph glyph-name="delta" unicode="δ"/><glyph glyph-name="epsilon" horiz-adv-x="740" unicode="ε"/><glyph glyph-name="zeta" horiz-adv-x="732" unicode="ζ"/><glyph glyph-name="eta" unicode="η"/><glyph glyph-name="theta" unicode="θ"/><glyph glyph-name="iota" horiz-adv-x="369" unicode="ι"/><glyph glyph-name="kappa" horiz-adv-x="830" unicode="κ"/><glyph glyph-name="lambda" horiz-adv-x="830" unicode="λ"/><glyph glyph-name="uni03BC" horiz-adv-x="956" unicode="μ"/><glyph glyph-name="nu" horiz-adv-x="830" unicode="ν"/><glyph glyph-name="xi" horiz-adv-x="743" unicode="ξ"/><glyph glyph-name="omicron" unicode="ο"/><glyph glyph-name="pi" horiz-adv-x="1145" unicode="π"/><glyph glyph-name="rho" horiz-adv-x="944" unicode="ρ"/><glyph glyph-name="sigma1" horiz-adv-x="799" unicode="ς"/><glyph glyph-name="sigma" horiz-adv-x="1024" unicode="σ"/><glyph glyph-name="tau" horiz-adv-x="655" unicode="τ"/><glyph glyph-name="upsilon" horiz-adv-x="907" unicode="υ"/><glyph glyph-name="phi" horiz-adv-x="1076" unicode="φ"/><glyph glyph-name="chi" horiz-adv-x="871" unicode="χ"/><glyph glyph-name="psi" horiz-adv-x="1183" unicode="ψ"/><glyph glyph-name="omega" horiz-adv-x="1295" unicode="ω"/><glyph glyph-name="iotadieresis" horiz-adv-x="369" unicode="ϊ"/><glyph glyph-name="upsilondieresis" horiz-adv-x="907" unicode="ϋ"/><glyph glyph-name="omicrontonos" unicode="ό"/><glyph glyph-name="upsilontonos" horiz-adv-x="907" unicode="ύ"/><glyph glyph-name="omegatonos" horiz-adv-x="1295" unicode="ώ"/><glyph glyph-name="afii10023" horiz-adv-x="1107" unicode="Ё"/><glyph glyph-name="afii10051" horiz-adv-x="1435" unicode="Ђ"/><glyph glyph-name="afii10052" horiz-adv-x="898" unicode="Ѓ"/><glyph glyph-name="afii10053" horiz-adv-x="1193" unicode="Є"/><glyph glyph-name="afii10054" horiz-adv-x="1106" unicode="Ѕ"/><glyph glyph-name="afii10055" horiz-adv-x="461" unicode="І"/><glyph glyph-name="afii10056" horiz-adv-x="461" unicode="Ї"/><glyph glyph-name="afii10057" horiz-adv-x="830" unicode="Ј"/><glyph glyph-name="afii10058" horiz-adv-x="1754" unicode="Љ"/><glyph glyph-name="afii10059" horiz-adv-x="1676" unicode="Њ"/><glyph glyph-name="afii10060" horiz-adv-x="1417" unicode="Ћ"/><glyph glyph-name="afii10061" horiz-adv-x="967" unicode="Ќ"/><glyph glyph-name="afii10062" horiz-adv-x="1054" unicode="Ў"/><glyph glyph-name="afii10145" horiz-adv-x="1193" unicode="Џ"/><glyph glyph-name="afii10017" horiz-adv-x="1106" unicode="А"/><glyph glyph-name="afii10018" horiz-adv-x="1089" unicode="Б"/><glyph glyph-name="afii10019" horiz-adv-x="1106" unicode="В"/><glyph glyph-name="afii10020" horiz-adv-x="898" unicode="Г"/><glyph glyph-name="afii10021" horiz-adv-x="1123" unicode="Д"/><glyph glyph-name="afii10022" horiz-adv-x="1106" unicode="Е"/><glyph glyph-name="afii10024" horiz-adv-x="1532" unicode="Ж"/><glyph glyph-name="afii10025" horiz-adv-x="1002" unicode="З"/><glyph glyph-name="afii10026" horiz-adv-x="1193" unicode="И"/><glyph glyph-name="afii10027" horiz-adv-x="1193" unicode="Й"/><glyph glyph-name="afii10028" horiz-adv-x="967" unicode="К"/><glyph glyph-name="afii10029" horiz-adv-x="1089" unicode="Л"/><glyph glyph-name="afii10030" horiz-adv-x="1382" unicode="М"/><glyph glyph-name="afii10031" horiz-adv-x="1198" unicode="Н"/><glyph glyph-name="afii10032" horiz-adv-x="1291" unicode="О"/><glyph glyph-name="afii10033" horiz-adv-x="1193" unicode="П"/><glyph glyph-name="afii10034" horiz-adv-x="1106" unicode="Р"/><glyph glyph-name="afii10035" horiz-adv-x="1198" unicode="С"/><glyph glyph-name="afii10036" horiz-adv-x="1013" unicode="Т"/><glyph glyph-name="afii10037" horiz-adv-x="1054" unicode="У"/><glyph glyph-name="afii10038" horiz-adv-x="1261" unicode="Ф"/><glyph glyph-name="afii10039" horiz-adv-x="1106" unicode="Х"/><glyph glyph-name="afii10040" horiz-adv-x="1228" unicode="Ц"/><glyph glyph-name="afii10041" horiz-adv-x="1106" unicode="Ч"/><glyph glyph-name="afii10042" horiz-adv-x="1520" unicode="Ш"/><glyph glyph-name="afii10043" horiz-adv-x="1555" unicode="Щ"/><glyph glyph-name="afii10044" horiz-adv-x="1313" unicode="Ъ"/><glyph glyph-name="afii10045" horiz-adv-x="1469" unicode="Ы"/><glyph glyph-name="afii10046" horiz-adv-x="1089" unicode="Ь"/><glyph glyph-name="afii10047" horiz-adv-x="1193" unicode="Э"/><glyph glyph-name="afii10048" horiz-adv-x="1676" unicode="Ю"/><glyph glyph-name="afii10049" horiz-adv-x="1198" unicode="Я"/><glyph glyph-name="afii10065" unicode="а"/><glyph glyph-name="afii10066" horiz-adv-x="950" unicode="б"/><glyph glyph-name="afii10067" horiz-adv-x="881" unicode="в"/><glyph glyph-name="afii10068" horiz-adv-x="605" unicode="г"/><glyph glyph-name="afii10069" horiz-adv-x="968" unicode="д"/><glyph glyph-name="afii10070" unicode="е"/><glyph glyph-name="afii10072" horiz-adv-x="1110" unicode="ж"/><glyph glyph-name="afii10073" horiz-adv-x="761" unicode="з"/><glyph glyph-name="afii10074" horiz-adv-x="927" unicode="и"/><glyph glyph-name="afii10075" horiz-adv-x="927" unicode="й"/><glyph glyph-name="afii10076" horiz-adv-x="725" unicode="к"/><glyph glyph-name="afii10077" horiz-adv-x="968" unicode="л"/><glyph glyph-name="afii10078" horiz-adv-x="1140" unicode="м"/><glyph glyph-name="afii10079" horiz-adv-x="916" unicode="н"/><glyph glyph-name="afii10080" unicode="о"/><glyph glyph-name="afii10081" horiz-adv-x="898" unicode="п"/><glyph glyph-name="afii10082" unicode="р"/><glyph glyph-name="afii10083" horiz-adv-x="830" unicode="с"/><glyph glyph-name="afii10084" horiz-adv-x="760" unicode="т"/><glyph glyph-name="afii10085" horiz-adv-x="830" unicode="у"/><glyph glyph-name="afii10086" horiz-adv-x="1365" unicode="ф"/><glyph glyph-name="afii10087" horiz-adv-x="830" unicode="х"/><glyph glyph-name="afii10088" horiz-adv-x="950" unicode="ц"/><glyph glyph-name="afii10089" horiz-adv-x="864" unicode="ч"/><glyph glyph-name="afii10090" horiz-adv-x="1331" unicode="ш"/><glyph glyph-name="afii10091" horiz-adv-x="1365" unicode="щ"/><glyph glyph-name="afii10092" horiz-adv-x="1037" unicode="ъ"/><glyph glyph-name="afii10093" horiz-adv-x="1193" unicode="ы"/><glyph glyph-name="afii10094" horiz-adv-x="864" unicode="ь"/><glyph glyph-name="afii10095" horiz-adv-x="847" unicode="э"/><glyph glyph-name="afii10096" horiz-adv-x="1244" unicode="ю"/><glyph glyph-name="afii10097" horiz-adv-x="898" unicode="я"/><glyph glyph-name="afii10071" unicode="ё"/><glyph glyph-name="afii10099" unicode="ђ"/><glyph glyph-name="afii10100" horiz-adv-x="605" unicode="ѓ"/><glyph glyph-name="afii10101" horiz-adv-x="847" unicode="є"/><glyph glyph-name="afii10102" horiz-adv-x="830" unicode="ѕ"/><glyph glyph-name="afii10103" horiz-adv-x="369" unicode="і"/><glyph glyph-name="afii10104" horiz-adv-x="461" unicode="ї"/><glyph glyph-name="afii10105" horiz-adv-x="369" unicode="ј"/><glyph glyph-name="afii10106" horiz-adv-x="1503" unicode="љ"/><glyph glyph-name="afii10107" horiz-adv-x="1348" unicode="њ"/><glyph glyph-name="afii10108" unicode="ћ"/><glyph glyph-name="afii10109" horiz-adv-x="725" unicode="ќ"/><glyph glyph-name="afii10110" horiz-adv-x="830" unicode="ў"/><glyph glyph-name="afii10193" horiz-adv-x="916" unicode="џ"/><glyph glyph-name="afii10050" horiz-adv-x="811" unicode="Ґ"/><glyph glyph-name="afii10098" horiz-adv-x="682" unicode="ґ"/><glyph glyph-name="Wgrave" horiz-adv-x="1566" unicode="Ẁ"/><glyph glyph-name="wgrave" horiz-adv-x="1198" unicode="ẁ"/><glyph glyph-name="Wacute" horiz-adv-x="1566" unicode="Ẃ"/><glyph glyph-name="wacute" horiz-adv-x="1198" unicode="ẃ"/><glyph glyph-name="Wdieresis" horiz-adv-x="1566" unicode="Ẅ"/><glyph glyph-name="wdieresis" horiz-adv-x="1198" unicode="ẅ"/><glyph glyph-name="Ygrave" horiz-adv-x="1106" unicode="Ỳ"/><glyph glyph-name="ygrave" horiz-adv-x="830" unicode="ỳ"/><glyph d="M439 1259q98 -29 130 -29l113 6l3 -3v-29q0 -18 -155 -52l-75 -3h-13q-103 0 -123 6q-99 23 -243 43l-3 3v29q0 14 133 23q0 6 65 6q0 4 64 7z" glyph-name="endash" horiz-adv-x="751" unicode="–"/><glyph d="M881 1259q215 -29 285 -29l250 6l7 -3v-29q0 -18 -342 -52l-165 -3h-29q-228 0 -271 6q-219 23 -536 43l-7 3v29q0 14 293 23q0 6 143 6q0 4 142 7z" glyph-name="emdash" horiz-adv-x="1550" unicode="—"/><glyph glyph-name="afii00208" horiz-adv-x="1659" unicode="―"/><glyph glyph-name="underscoredbl" horiz-adv-x="916" unicode="‗"/><glyph d="M157 2245h4q80 -100 80 -284q0 -117 -149 -301h-4l-7 12q30 119 49 323q31 84 31 165l-12 73z" glyph-name="quoteleft" horiz-adv-x="369" unicode="‘"/><glyph d="M157 2245h4q80 -100 80 -284q0 -117 -149 -301h-4l-7 12q30 119 49 323q31 84 31 165l-12 73z" glyph-name="quoteright" horiz-adv-x="369" unicode="’"/><glyph d="M157 225h4q80 -100 80 -283q0 -118 -149 -302h-4l-7 13q30 119 49 323q31 83 31 164l-12 73z" glyph-name="quotesinglbase" horiz-adv-x="369" unicode="‚"/><glyph glyph-name="quotereversed" horiz-adv-x="369" unicode="‛"/><glyph d="M157 2245h4q80 -100 80 -284q0 -117 -149 -301h-4l-7 12q30 119 49 323q31 84 31 165l-12 73zM340 2245h4q80 -100 80 -284q0 -117 -149 -301h-4l-7 12q30 119 49 323q31 84 31 165l-11 73z" glyph-name="quotedblleft" horiz-adv-x="552" unicode="“"/><glyph d="M157 2245h4q80 -100 80 -284q0 -117 -149 -301h-4l-7 12q30 119 49 323q31 84 31 165l-12 73zM340 2245h4q80 -100 80 -284q0 -117 -149 -301h-4l-7 12q30 119 49 323q31 84 31 165l-11 73z" glyph-name="quotedblright" horiz-adv-x="552" unicode="”"/><glyph d="M157 225h4q80 -100 80 -283q0 -118 -149 -302h-4l-7 13q30 119 49 323q31 83 31 164l-12 73zM340 225h4q80 -100 80 -283q0 -118 -149 -302h-4l-7 13q30 119 49 323q31 83 31 164l-11 73z" glyph-name="quotedblbase" horiz-adv-x="552" unicode="„"/><glyph glyph-name="dagger" unicode="†"/><glyph glyph-name="daggerdbl" unicode="‡"/><glyph glyph-name="bullet" horiz-adv-x="581" unicode="•"/><glyph glyph-name="ellipsis" horiz-adv-x="1659" unicode="…"/><glyph glyph-name="perthousand" horiz-adv-x="1659" unicode="‰"/><glyph glyph-name="minute" horiz-adv-x="311" unicode="′"/><glyph glyph-name="second" horiz-adv-x="588" unicode="″"/><glyph glyph-name="guilsinglleft" horiz-adv-x="553" unicode="‹"/><glyph glyph-name="guilsinglright" horiz-adv-x="553" unicode="›"/><glyph glyph-name="exclamdbl" horiz-adv-x="830" unicode="‼"/><glyph glyph-name="uni203E" horiz-adv-x="553" unicode="‾"/><glyph glyph-name="fraction" horiz-adv-x="277" unicode="⁄"/><glyph glyph-name="fraction" horiz-adv-x="277" unicode="∕"/><glyph glyph-name="uni207F" horiz-adv-x="605" unicode="ⁿ"/><glyph glyph-name="franc" unicode="₣"/><glyph glyph-name="lira" unicode="₤"/><glyph glyph-name="peseta" horiz-adv-x="1814" unicode="₧"/><glyph glyph-name="Euro" unicode="€"/><glyph glyph-name="afii61248" horiz-adv-x="1469" unicode="℅"/><glyph glyph-name="afii61289" horiz-adv-x="536" unicode="ℓ"/><glyph glyph-name="afii61352" horiz-adv-x="1779" unicode="№"/><glyph glyph-name="trademark" horiz-adv-x="1659" unicode="™"/><glyph glyph-name="Omega" horiz-adv-x="1274" unicode="Ω"/><glyph glyph-name="estimated" horiz-adv-x="995" unicode="℮"/><glyph glyph-name="oneeighth" horiz-adv-x="1383" unicode="⅛"/><glyph glyph-name="threeeighths" horiz-adv-x="1383" unicode="⅜"/><glyph glyph-name="fiveeighths" horiz-adv-x="1383" unicode="⅝"/><glyph glyph-name="seveneighths" horiz-adv-x="1383" unicode="⅞"/><glyph glyph-name="arrowleft" horiz-adv-x="1659" unicode="←"/><glyph glyph-name="arrowup" horiz-adv-x="830" unicode="↑"/><glyph glyph-name="arrowright" horiz-adv-x="1659" unicode="→"/><glyph glyph-name="arrowdown" horiz-adv-x="830" unicode="↓"/><glyph glyph-name="arrowboth" horiz-adv-x="1659" unicode="↔"/><glyph glyph-name="arrowupdn" horiz-adv-x="830" unicode="↕"/><glyph glyph-name="arrowupdnbse" horiz-adv-x="830" unicode="↨"/><glyph glyph-name="partialdiff" horiz-adv-x="820" unicode="∂"/><glyph glyph-name="Delta" horiz-adv-x="1015" unicode="∆"/><glyph glyph-name="product" horiz-adv-x="1365" unicode="∏"/><glyph glyph-name="summation" horiz-adv-x="1183" unicode="∑"/><glyph glyph-name="minus" horiz-adv-x="968" unicode="−"/><glyph glyph-name="radical" horiz-adv-x="911" unicode="√"/><glyph glyph-name="infinity" horiz-adv-x="1183" unicode="∞"/><glyph glyph-name="orthogonal" horiz-adv-x="1625" unicode="∟"/><glyph glyph-name="intersection" horiz-adv-x="1193" unicode="∩"/><glyph glyph-name="integral" horiz-adv-x="455" unicode="∫"/><glyph glyph-name="approxequal" horiz-adv-x="911" unicode="≈"/><glyph glyph-name="notequal" horiz-adv-x="911" unicode="≠"/><glyph glyph-name="equivalence" horiz-adv-x="968" unicode="≡"/><glyph glyph-name="lessequal" horiz-adv-x="911" unicode="≤"/><glyph glyph-name="greaterequal" horiz-adv-x="911" unicode="≥"/><glyph glyph-name="house" horiz-adv-x="1002" unicode="⌂"/><glyph glyph-name="revlogicalnot" horiz-adv-x="968" unicode="⌐"/><glyph glyph-name="integraltp" horiz-adv-x="1002" unicode="⌠"/><glyph glyph-name="integralbt" horiz-adv-x="1002" unicode="⌡"/><glyph glyph-name="SF100000" horiz-adv-x="1175" unicode="─"/><glyph glyph-name="SF110000" horiz-adv-x="1037" unicode="│"/><glyph glyph-name="SF010000" horiz-adv-x="1175" unicode="┌"/><glyph glyph-name="SF030000" horiz-adv-x="1175" unicode="┐"/><glyph glyph-name="SF020000" horiz-adv-x="1175" unicode="└"/><glyph glyph-name="SF040000" horiz-adv-x="1175" unicode="┘"/><glyph glyph-name="SF080000" horiz-adv-x="1175" unicode="├"/><glyph glyph-name="SF090000" horiz-adv-x="1175" unicode="┤"/><glyph glyph-name="SF060000" horiz-adv-x="1175" unicode="┬"/><glyph glyph-name="SF070000" horiz-adv-x="1175" unicode="┴"/><glyph glyph-name="SF050000" horiz-adv-x="1175" unicode="┼"/><glyph glyph-name="SF430000" horiz-adv-x="1175" unicode="═"/><glyph glyph-name="SF240000" horiz-adv-x="1175" unicode="║"/><glyph glyph-name="SF510000" horiz-adv-x="1175" unicode="╒"/><glyph glyph-name="SF520000" horiz-adv-x="1175" unicode="╓"/><glyph glyph-name="SF390000" horiz-adv-x="1175" unicode="╔"/><glyph glyph-name="SF220000" horiz-adv-x="1175" unicode="╕"/><glyph glyph-name="SF210000" horiz-adv-x="1175" unicode="╖"/><glyph glyph-name="SF250000" horiz-adv-x="1175" unicode="╗"/><glyph glyph-name="SF500000" horiz-adv-x="1175" unicode="╘"/><glyph glyph-name="SF490000" horiz-adv-x="1175" unicode="╙"/><glyph glyph-name="SF380000" horiz-adv-x="1175" unicode="╚"/><glyph glyph-name="SF280000" horiz-adv-x="1175" unicode="╛"/><glyph glyph-name="SF270000" horiz-adv-x="1175" unicode="╜"/><glyph glyph-name="SF260000" horiz-adv-x="1175" unicode="╝"/><glyph glyph-name="SF360000" horiz-adv-x="1175" unicode="╞"/><glyph glyph-name="SF370000" horiz-adv-x="1175" unicode="╟"/><glyph glyph-name="SF420000" horiz-adv-x="1175" unicode="╠"/><glyph glyph-name="SF190000" horiz-adv-x="1175" unicode="╡"/><glyph glyph-name="SF200000" horiz-adv-x="1175" unicode="╢"/><glyph glyph-name="SF230000" horiz-adv-x="1175" unicode="╣"/><glyph glyph-name="SF470000" horiz-adv-x="1175" unicode="╤"/><glyph glyph-name="SF480000" horiz-adv-x="1175" unicode="╥"/><glyph glyph-name="SF410000" horiz-adv-x="1175" unicode="╦"/><glyph glyph-name="SF450000" horiz-adv-x="1175" unicode="╧"/><glyph glyph-name="SF460000" horiz-adv-x="1175" unicode="╨"/><glyph glyph-name="SF400000" horiz-adv-x="1175" unicode="╩"/><glyph glyph-name="SF540000" horiz-adv-x="1175" unicode="╪"/><glyph glyph-name="SF530000" horiz-adv-x="1175" unicode="╫"/><glyph glyph-name="SF440000" horiz-adv-x="1175" unicode="╬"/><glyph glyph-name="upblock" horiz-adv-x="1175" unicode="▀"/><glyph glyph-name="dnblock" horiz-adv-x="1175" unicode="▄"/><glyph glyph-name="block" horiz-adv-x="1175" unicode="█"/><glyph glyph-name="lfblock" horiz-adv-x="1175" unicode="▌"/><glyph glyph-name="rtblock" horiz-adv-x="1175" unicode="▐"/><glyph glyph-name="ltshade" horiz-adv-x="1175" unicode="░"/><glyph glyph-name="shade" horiz-adv-x="1175" unicode="▒"/><glyph glyph-name="dkshade" horiz-adv-x="1210" unicode="▓"/><glyph glyph-name="filledbox" horiz-adv-x="1002" unicode="■"/><glyph glyph-name="H22073" horiz-adv-x="1002" unicode="□"/><glyph glyph-name="H18543" horiz-adv-x="588" unicode="▪"/><glyph glyph-name="H18551" horiz-adv-x="588" unicode="▫"/><glyph glyph-name="filledrect" horiz-adv-x="1659" unicode="▬"/><glyph glyph-name="triagup" horiz-adv-x="1642" unicode="▲"/><glyph glyph-name="triagrt" horiz-adv-x="1642" unicode="►"/><glyph glyph-name="triagdn" horiz-adv-x="1642" unicode="▼"/><glyph glyph-name="triaglf" horiz-adv-x="1642" unicode="◄"/><glyph glyph-name="lozenge" horiz-adv-x="820" unicode="◊"/><glyph glyph-name="circle" horiz-adv-x="1002" unicode="○"/><glyph glyph-name="H18533" horiz-adv-x="1002" unicode="●"/><glyph glyph-name="invbullet" horiz-adv-x="1002" unicode="◘"/><glyph glyph-name="invcircle" horiz-adv-x="1002" unicode="◙"/><glyph glyph-name="openbullet" horiz-adv-x="588" unicode="◦"/><glyph glyph-name="smileface" horiz-adv-x="1694" unicode="☺"/><glyph glyph-name="invsmileface" horiz-adv-x="1746" unicode="☻"/><glyph glyph-name="sun" horiz-adv-x="1520" unicode="☼"/><glyph glyph-name="female" horiz-adv-x="1244" unicode="♀"/><glyph glyph-name="male" horiz-adv-x="1244" unicode="♂"/><glyph glyph-name="spade" horiz-adv-x="881" unicode="♠"/><glyph glyph-name="club" horiz-adv-x="1089" unicode="♣"/><glyph glyph-name="heart" horiz-adv-x="985" unicode="♥"/><glyph glyph-name="diamond" horiz-adv-x="847" unicode="♦"/><glyph glyph-name="musicalnote" horiz-adv-x="830" unicode="♪"/><glyph glyph-name="musicalnotedbl" horiz-adv-x="1244" unicode="♫"/><glyph glyph-name="uniF001" horiz-adv-x="830" unicode=""/><glyph glyph-name="uniF001" horiz-adv-x="830" unicode="ﬁ"/><glyph glyph-name="uniF002" horiz-adv-x="830" unicode=""/><glyph glyph-name="uniF002" horiz-adv-x="830" unicode="ﬂ"/><glyph glyph-name="uniF004" horiz-adv-x="553" unicode=""/><glyph glyph-name="uniF005" horiz-adv-x="553" unicode=""/><glyph glyph-name="glyph155" horiz-adv-x="911"/></font>
</defs>
</svg>
